<?xml version="1.0" encoding="utf-8"?>
<!-- Generator: Adobe Illustrator 16.0.0, SVG Export Plug-In . SVG Version: 6.00 Build 0)  -->
<!DOCTYPE svg PUBLIC "-//W3C//DTD SVG 1.1//EN" "http://www.w3.org/Graphics/SVG/1.1/DTD/svg11.dtd">
<svg version="1.1" id="Layer_1" xmlns="http://www.w3.org/2000/svg" xmlns:xlink="http://www.w3.org/1999/xlink" x="0px" y="0px"
	 width="850.39px" height="850.39px" viewBox="0 0 850.39 850.39" enable-background="new 0 0 850.39 850.39" xml:space="preserve">
<g>
	<defs>
		<rect id="SVGID_1_" x="-0.002" y="-0.002" width="850.394" height="850.394"/>
	</defs>
	<clipPath id="SVGID_2_">
		<use xlink:href="#SVGID_1_"  overflow="visible"/>
	</clipPath>
	<g clip-path="url(#SVGID_2_)">
		<g>
			<path fill="#6D6E71" d="M1109.699,374.012c-23.273-2.076-29.861-13.203-62.036-10.467c-38.945,3.342-37.498,20.332-76.438,23.637
				c-38.951,3.339-40.394-13.649-79.333-10.345c-38.973,3.339-37.499,20.333-76.472,23.638
				c-38.945,3.308-40.388-13.656-79.332-10.348c-38.94,3.311-37.498,20.298-76.438,23.641c-38.974,3.305-40.421-13.687-79.36-10.344
				c-38.946,3.306-37.498,20.297-76.471,23.636c-30.107,2.554-37.804-7.011-57.74-9.958v-0.029c-0.238-0.633-0.51-1.231-0.843-1.802
				c20.147,1.138,28.659,10.014,58.433,4.751c38.519-6.795,35.54-23.576,74.064-30.372c38.491-6.798,41.435,10.016,79.959,3.214
				c38.497-6.796,35.519-23.573,74.009-30.37c38.519-6.795,41.469,10.016,79.959,3.22c38.491-6.799,35.546-23.578,74.037-30.375
				c38.491-6.793,41.44,10.015,79.932,3.22c38.49-6.767,35.541-23.577,74.036-30.375c31.842-5.59,39.362,4.935,62.818,4.874
				C1105.762,333.084,1108.197,353.41,1109.699,374.012z"/>
			<path fill="#6D6E71" d="M723.19-193.321c-13.442,19.247-26.401,19.336-40.148,48.626c-16.598,35.396-1.171,42.641-17.74,78.008
				c-16.597,35.393-32.059,28.145-48.655,63.541c-16.57,35.395-1.143,42.64-17.739,78.036
				c-16.604,35.394-32.031,28.146-48.629,63.542c-16.598,35.392-1.176,42.611-17.772,78.002
				c-16.598,35.396-32.024,28.148-48.627,63.545c-16.598,35.425-1.17,42.641-17.773,78.035
				c-12.838,27.396-24.987,29.257-37.498,45.104c-0.662-0.147-1.294-0.211-1.984-0.211c11.034-16.897,22.974-19.813,33.321-48.262
				c13.382-36.746-2.646-42.58,10.735-79.33c13.349-36.716,29.379-30.882,42.761-67.631c13.354-36.717-2.646-42.551,10.709-79.295
				c13.381-36.721,29.407-30.887,42.76-67.633c13.382-36.717-2.65-42.553,10.736-79.3c13.348-36.717,29.38-30.884,42.732-67.631
				c13.381-36.718-2.65-42.55,10.73-79.271c11.068-30.431,23.968-31.634,35.635-52.053
				C685.991-210.279,704.813-202.191,723.19-193.321z"/>
			<path fill="#6D6E71" d="M409.751,441.399c-19.337,5.804-30.342,0.395-56.535,15.519c-33.861,19.549-25.349,34.313-59.208,53.86
				c-33.833,19.545-42.373,4.78-76.233,24.328c-33.833,19.544-25.32,34.312-59.181,53.856c-33.86,19.547-42.372,4.78-76.232,24.327
				c-33.83,19.549-25.32,34.313-59.181,53.86c-33.833,19.517-42.373,4.78-76.203,24.297c-33.86,19.548-25.351,34.313-59.183,53.86
				c-28.027,16.176-38.668,8.84-60.684,16.927c-10.073-17.772-19.337-36.023-27.785-54.758c22.705-6.108,32.657,2.16,62.006-11.46
				c35.457-16.449,28.298-31.902,63.756-48.355c35.452-16.414,42.638-0.962,78.095-17.406c35.452-16.453,28.299-31.912,63.75-48.356
				c35.457-16.423,42.642-0.966,78.096-17.415c35.485-16.445,28.298-31.903,63.752-48.356c35.485-16.414,42.642-0.962,78.096-17.407
				c35.485-16.453,28.329-31.911,63.783-48.356c27.425-12.721,37.92-6.379,57.675-10.436
				C408.759,440.438,409.241,440.921,409.751,441.399z"/>
			<path fill="#6D6E71" d="M416.187,445.7c-16.145,12.06-28.356,10.766-47.781,33.924c-25.143,29.948-12.089,40.898-37.199,70.846
				c-25.14,29.953-38.191,19.007-63.334,48.961c-25.109,29.92-12.056,40.897-37.199,70.845
				c-25.106,29.923-38.158,18.976-63.3,48.931c-25.11,29.92-12.056,40.897-37.199,70.845c-25.109,29.926-38.188,18.976-63.3,48.93
				c-25.11,29.921-12.056,40.897-37.199,70.817c-20.748,24.749-33.258,21.561-51.151,36.597
				c-15.549-13.322-30.492-27.336-44.776-41.979c19.156-13.384,31.334-9.113,54.22-31.874c27.694-27.581,15.666-39.67,43.362-67.245
				c27.696-27.573,39.755-15.487,67.452-43.063c27.694-27.576,15.666-39.662,43.362-67.237
				c27.696-27.578,39.725-15.519,67.421-43.094c27.696-27.577,15.669-39.664,43.396-67.237
				c27.693-27.578,39.722-15.489,67.418-43.094c27.696-27.578,15.668-39.664,43.395-67.243
				c21.412-21.322,33.467-18.913,50.641-29.526C414.986,445.16,415.558,445.432,416.187,445.7z"/>
			<path fill="#6D6E71" d="M405.151,435.117c-20.149-1.146-28.659-9.985-58.46-4.723c-38.49,6.766-35.543,23.576-74.037,30.342
				c-38.49,6.796-41.468-9.983-79.962-3.183c-38.49,6.766-35.512,23.573-74.037,30.341c-38.49,6.797-41.436-9.983-79.929-3.218
				c-38.521,6.795-35.543,23.604-74.034,30.372c-38.497,6.793-41.472-9.988-79.965-3.22c-38.491,6.796-35.513,23.576-74.003,30.37
				c-31.847,5.628-39.367-4.897-62.821-4.869c-3.277-20.027-5.715-40.326-7.217-60.925c23.273,2.074,29.861,13.198,62.036,10.431
				c38.945-3.305,37.5-20.296,76.443-23.634c38.943-3.306,40.387,13.686,79.33,10.345c38.942-3.309,37.498-20.299,76.44-23.635
				c38.973-3.308,40.417,13.683,79.36,10.342c38.943-3.305,37.499-20.299,76.444-23.604c38.939-3.336,40.387,13.656,79.36,10.342
				c38.939-3.335,37.498-20.326,76.44-23.635c30.131-2.584,37.831,7.007,57.77,9.927
				C404.55,433.914,404.821,434.519,405.151,435.117z"/>
			<path fill="#6D6E71" d="M402.956,427.658c-18.525-7.936-23.516-19.185-53.286-24.416c-38.521-6.797-41.468,9.984-79.962,3.188
				c-38.521-6.766-35.543-23.579-74.037-30.345c-38.49-6.796-41.468,9.981-79.959,3.188c-38.491-6.766-35.546-23.576-74.037-30.342
				c-38.491-6.798-41.469,9.981-79.959,3.186c-38.494-6.766-35.519-23.573-74.009-30.342c-38.491-6.796-41.469,9.985-79.959,3.22
				c-31.814-5.623-35.306-18.075-57.348-26.042c3.729-20.268,8.39-40.206,13.921-59.815c21.323,9.927,23.64,22.646,54.853,31.097
				c37.739,10.192,42.192-6.256,79.932,3.937c37.711,10.195,33.259,26.646,71,36.838c37.739,10.227,42.189-6.254,79.929,3.941
				c37.739,10.225,33.289,26.672,71.028,36.867c37.712,10.196,42.162-6.254,79.901,3.94c37.739,10.195,33.29,26.674,71.028,36.863
				c37.742,10.195,42.192-6.256,79.931,3.939c29.203,7.884,33.14,19.518,50.913,29.111
				C402.836,426.366,402.867,427.028,402.956,427.658z"/>
			<path fill="#6D6E71" d="M403.979,418.006c-0.21,0.6-0.391,1.234-0.541,1.892c-14.676-13.803-15.546-26.072-41.709-41.164
				c-33.861-19.545-42.373-4.813-76.233-24.357c-33.86-19.548-25.32-34.313-59.181-53.859c-33.86-19.516-42.372-4.753-76.232-24.298
				c-33.86-19.548-25.348-34.31-59.181-53.857c-33.86-19.547-42.37-4.782-76.232-24.33c-33.86-19.545-25.32-34.311-59.181-53.854
				c-33.86-19.548-42.37-4.785-76.233-24.334c-27.993-16.147-27-29.045-44.984-44.081c10.465-17.652,21.683-34.793,33.623-51.363
				c16.536,16.57,14.401,29.32,40.833,47.904c31.967,22.492,41.771,8.54,73.734,31.035c31.969,22.492,22.165,36.444,54.131,58.939
				c31.967,22.464,41.799,8.539,73.768,31.035c31.964,22.461,22.162,36.413,54.128,58.911c31.964,22.492,41.768,8.54,73.735,31.032
				c31.997,22.492,22.192,36.444,54.16,58.939c31.966,22.492,41.768,8.54,73.765,31.034
				C390.867,390.643,390.597,402.906,403.979,418.006z"/>
			<path fill="#6D6E71" d="M407.766,411.178c-0.449,0.516-0.84,1.057-1.201,1.596c-9.053-18.014-5.684-29.801-25.112-52.955
				c-25.137-29.951-38.191-18.976-63.328-48.927c-25.11-29.951-12.059-40.929-37.171-70.849
				c-25.137-29.951-38.191-19.007-63.328-48.957c-25.11-29.924-12.059-40.898-37.199-70.849
				c-25.11-29.921-38.164-18.977-63.301-48.927c-25.14-29.922-12.062-40.896-37.199-70.818
				C54.817-29.46,41.764-18.514,16.626-48.436c-20.75-24.748-15.428-36.507-27.156-56.775C5.258-118.2,21.648-130.503,38.578-142.02
				c9.893,21.233,3.519,32.48,21.982,58.972c22.373,32.057,36.355,22.313,58.701,54.37c22.343,32.086,8.357,41.829,30.702,73.887
				c22.346,32.086,36.356,22.313,58.701,54.399c22.342,32.058,8.357,41.829,30.702,73.887
				c22.345,32.053,36.355,22.314,58.701,54.401c22.343,32.055,8.357,41.795,30.703,73.881c22.373,32.059,36.355,22.314,58.7,54.402
				C404.761,380.957,400.31,392.444,407.766,411.178z"/>
			<path fill="#6D6E71" d="M413.6,406.095c-0.599,0.3-1.143,0.693-1.683,1.087c-2.376-20.027,4.871-29.95-5.471-58.368
				c-13.354-36.749-29.382-30.915-42.766-67.662c-13.348-36.719,2.651-42.553-10.703-79.299
				c-13.381-36.72-29.41-30.886-42.76-67.633c-13.384-36.718,2.645-42.552-10.708-79.299
				c-13.381-36.718-29.407-30.882-42.761-67.632c-13.381-36.717,2.645-42.55-10.736-79.268
				c-13.354-36.746-29.379-30.914-42.761-67.632c-11.068-30.434-1.958-39.666-6.105-62.818c19.215-6.767,38.79-12.692,58.759-17.744
				c2.074,23.426-7.819,31.786,0.482,63.061c10.043,37.8,26.524,33.411,36.567,71.18c10.015,37.771-6.466,42.161,3.58,79.93
				c10.043,37.772,26.493,33.411,36.536,71.18c10.042,37.772-6.436,42.162,3.609,79.929c10.012,37.804,26.491,33.412,36.536,71.182
				c10.046,37.8-6.435,42.162,3.58,79.965c10.043,37.767,26.524,33.405,36.567,71.179C421.119,376.657,413.029,385.92,413.6,406.095
				z"/>
			<path fill="#6D6E71" d="M482.586-119.135c-3.516,38.944-20.479,37.412-23.967,76.322c-3.488,38.943,13.476,40.478,9.981,79.419
				c-3.488,38.916-20.474,37.411-23.962,76.322c-3.488,38.945,13.498,40.477,10.01,79.391
				c-3.516,38.942-20.479,37.406-23.968,76.352c-3.517,38.943,13.476,40.477,9.987,79.419c-2.706,30.101-13.474,36.022-19.82,55.152
				c-0.66,0.116-1.292,0.269-1.924,0.482c4.603-19.643,14.797-26.493,14.797-56.719c0-39.093-17.051-39.093-17.051-78.185
				c0-39.096,17.051-39.096,17.051-78.188c0-39.093-17.051-39.093-17.051-78.188c0-39.093,17.051-39.093,17.051-78.185
				c0-39.094-17.051-39.094-17.051-78.188c0-39.061,17.051-39.061,17.051-78.154c0-39.092-17.051-39.092-17.051-78.157
				c0-32.297,11.638-37.92,15.67-60.925c20.656,0.181,41.102,1.323,61.281,3.309c-6.045,22.645-18.16,27.153-21.05,59.329
				C469.082-159.58,486.074-158.045,482.586-119.135z"/>
			<path fill="#6D6E71" d="M916.642-53.997c-19.154,13.349-31.364,9.078-54.251,31.874c-27.666,27.574-15.665,39.636-43.359,67.212
				c-27.699,27.604-39.728,15.518-67.427,43.094c-27.693,27.574-15.665,39.663-43.359,67.237
				c-27.699,27.575-39.727,15.489-67.422,43.063c-27.727,27.606-15.698,39.666-43.392,67.272
				c-27.699,27.573-39.728,15.485-67.421,43.063c-27.728,27.604-15.699,39.664-43.393,67.269
				c-21.411,21.322-33.474,18.942-50.642,29.499c-0.57-0.33-1.176-0.63-1.808-0.869c16.149-12.094,28.359-10.796,47.818-33.924
				c25.138-29.978,12.056-40.925,37.198-70.878c25.138-29.951,38.191-18.974,63.329-48.927
				c25.109-29.951,12.061-40.896,37.17-70.845c25.138-29.955,38.192-18.98,63.329-48.931c25.11-29.951,12.057-40.896,37.198-70.847
				c25.11-29.951,38.158-18.977,63.302-48.929c25.109-29.95,12.061-40.896,37.17-70.847c20.751-24.722,33.289-21.563,51.179-36.567
				C887.411-82.688,902.356-68.673,916.642-53.997z"/>
			<path fill="#6D6E71" d="M1051.063,142.91c-22.703,6.136-32.689-2.136-62.036,11.459c-35.459,16.447-28.271,31.909-63.723,48.356
				c-35.485,16.447-42.645,0.992-78.097,17.409c-35.49,16.451-28.298,31.905-63.755,48.356
				c-35.48,16.451-42.645,0.992-78.096,17.413c-35.485,16.447-28.298,31.901-63.778,48.354
				c-35.457,16.449-42.616,0.991-78.101,17.44c-35.452,16.42-28.294,31.903-63.751,48.354c-27.455,12.72-37.953,6.341-57.705,10.437
				c-0.394-0.512-0.871-1.023-1.387-1.476c19.31-5.804,30.344-0.394,56.536-15.517c33.86-19.577,25.353-34.31,59.213-53.89
				c33.827-19.545,42.373-4.78,76.2-24.328c33.86-19.544,25.349-34.279,59.209-53.823c33.837-19.548,42.377-4.786,76.204-24.334
				c33.86-19.544,25.348-34.309,59.209-53.854c33.831-19.549,42.372-4.783,76.204-24.331c33.86-19.547,25.32-34.31,59.181-53.856
				c27.998-16.148,38.674-8.813,60.717-16.899C1033.351,105.951,1042.611,124.208,1051.063,142.91z"/>
			<path fill="#6D6E71" d="M1099.989,551.462c-3.76,20.27-8.423,40.237-13.925,59.815c-21.322-9.926-23.634-22.642-54.85-31.096
				c-37.742-10.194-42.188,6.255-79.931-3.94c-37.709-10.194-33.29-26.67-70.998-36.865c-37.743-10.197-42.189,6.256-79.932-3.942
				c-37.742-10.189-33.289-26.641-71.031-36.866c-37.742-10.192-42.156,6.282-79.898-3.942
				c-37.741-10.189-33.288-26.641-71.03-36.838c-37.737-10.219-42.189,6.254-79.932-3.963c-29.197-7.883-33.168-19.489-50.906-29.08
				c0-0.693-0.034-1.356-0.123-2.017c18.521,7.967,23.518,19.186,53.285,24.448c38.491,6.795,41.47-10.016,79.961-3.22
				c38.489,6.797,35.546,23.576,74.036,30.373c38.496,6.798,41.475-10.01,79.964-3.214c38.491,6.796,35.541,23.576,74.032,30.369
				c38.495,6.796,41.44-10.013,79.959-3.217c38.468,6.793,35.519,23.574,74.009,30.37c38.491,6.768,41.44-10.013,79.932-3.22
				C1074.459,531.016,1077.946,543.49,1099.989,551.462z"/>
			<path fill="#6D6E71" d="M1016.121,774.656c-10.47,17.648-21.688,34.795-33.622,51.362
				c-16.536-16.567-14.406-29.319-40.837-47.933c-31.969-22.494-41.801-8.54-73.765-31.034
				c-31.97-22.465-22.137-36.423-54.129-58.909c-31.97-22.494-41.773-8.54-73.737-31.035
				c-31.969-22.494-22.165-36.453-54.129-58.939c-31.969-22.467-41.8-8.539-73.765-31.034
				c-31.97-22.495-22.165-36.422-54.134-58.912c-31.964-22.494-41.796-8.567-73.766-31.065
				c-24.715-17.384-24.449-29.681-37.857-44.749c0.237-0.626,0.421-1.261,0.543-1.918c14.701,13.83,15.543,26.071,41.734,41.194
				c33.865,19.547,42.373,4.783,76.232,24.328c33.866,19.547,25.32,34.312,59.187,53.859c33.855,19.547,42.367,4.779,76.228,24.327
				c33.865,19.545,25.325,34.312,59.18,53.86c33.86,19.545,42.373,4.78,76.233,24.325c33.86,19.547,25.319,34.283,59.18,53.832
				c33.833,19.544,42.373,4.779,76.2,24.327C999.129,746.716,998.104,759.619,1016.121,774.656z"/>
			<path fill="#6D6E71" d="M860.916,955.598c-15.787,12.993-32.175,25.29-49.104,36.866c-9.893-21.231-3.55-32.479-22.01-58.998
				c-22.349-32.085-36.328-22.348-58.676-54.397c-22.343-32.059-8.356-41.802-30.7-73.888
				c-22.376-32.058-36.355-22.314-58.697-54.37c-22.343-32.085-8.362-41.831-30.705-73.887
				c-22.375-32.088-36.356-22.342-58.698-54.4c-22.343-32.085-8.362-41.828-30.705-73.887c-22.376-32.085-36.355-22.342-58.703-54.4
				c-17.291-24.808-12.866-36.268-20.264-55.002c0.423-0.514,0.81-1.051,1.17-1.592c9.051,17.983,5.685,29.801,25.11,52.925
				c25.109,29.955,38.191,19.005,63.301,48.961c25.143,29.948,12.089,40.895,37.197,70.843
				c25.144,29.957,38.192,18.979,63.336,48.933c25.109,29.947,12.055,40.895,37.165,70.846
				c25.138,29.954,38.191,18.977,63.328,48.93c25.109,29.947,12.062,40.897,37.17,70.845c25.144,29.954,38.192,18.978,63.329,48.931
				C854.511,923.57,849.192,935.356,860.916,955.598z"/>
			<path fill="#6D6E71" d="M653.274,1072.788c-19.215,6.796-38.824,12.716-58.793,17.773c-2.074-23.399,7.819-31.786-0.478-63.062
				c-10.047-37.772-26.523-33.379-36.571-71.182c-10.01-37.77,6.466-42.129-3.577-79.929
				c-10.043-37.771-26.523-33.378-36.533-71.182c-10.047-37.769,6.434-42.128-3.609-79.928
				c-10.016-37.772-26.496-33.381-36.539-71.181c-10.043-37.773,6.438-42.159-3.609-79.933c-10.016-37.8-26.49-33.408-36.533-71.208
				c-7.764-29.232,0.326-38.463-0.244-58.64c0.57-0.299,1.142-0.662,1.658-1.087c2.373,20.03-4.848,29.957,5.467,58.371
				c13.387,36.719,29.414,30.916,42.795,67.631c13.352,36.75-2.679,42.582,10.707,79.303c13.348,36.743,29.38,30.913,42.762,67.633
				c13.353,36.743-2.646,42.576,10.702,79.295c13.381,36.751,29.413,30.914,42.767,67.633c13.381,36.744-2.651,42.582,10.702,79.297
				c13.381,36.721,29.412,30.888,42.761,67.631C658.203,1040.425,649.093,1049.658,653.274,1072.788z"/>
			<path fill="#6D6E71" d="M433.721,737.935c0,39.096-17.051,39.096-17.051,78.188c0,39.093,17.051,39.093,17.051,78.188
				c0,39.093-17.051,39.093-17.051,78.185c0,39.064,17.051,39.064,17.051,78.157c0,32.299-11.636,37.925-15.668,60.896
				c-20.662-0.178-41.108-1.321-61.288-3.308c6.044-22.611,18.164-27.122,21.05-59.333c3.488-38.909-13.503-40.442-10.015-79.354
				c3.491-38.945,20.479-37.442,23.97-76.355c3.485-38.939-13.473-40.441-9.985-79.391c3.489-38.939,20.479-37.406,23.968-76.352
				c3.488-38.912-13.503-40.445-10.015-79.386c3.488-38.944,20.479-37.415,23.967-76.354c3.488-38.939-13.47-40.442-9.982-79.39
				c2.706-30.102,13.47-36.026,19.815-55.149c0.665-0.119,1.291-0.301,1.924-0.482c-4.598,19.605-14.793,26.496-14.793,56.718
				c0,39.096,17.051,39.096,17.051,78.188c0,39.093-17.051,39.093-17.051,78.185C416.669,698.879,433.721,698.879,433.721,737.935z"
				/>
			<path fill="#6D6E71" d="M390.448,495.771c-13.383,36.749,2.645,42.552-10.736,79.296c-13.381,36.75-29.38,30.918-42.76,67.632
				c-13.354,36.752,2.645,42.582-10.708,79.305c-13.381,36.743-29.41,30.91-42.761,67.631
				c-13.381,36.745,2.646,42.582-10.736,79.297c-13.354,36.749-29.379,30.911-42.764,67.633
				c-13.35,36.719,2.676,42.552-10.705,79.296c-11.066,30.405-23.937,31.64-35.665,52.024
				c-19.246-7.217-38.039-15.306-56.414-24.176c13.473-19.245,26.405-19.339,40.146-48.625
				c16.597-35.368,1.142-42.616,17.742-78.009c16.601-35.364,32.055-28.146,48.625-63.537c16.6-35.399,1.175-42.614,17.773-78.012
				c16.598-35.392,32.025-28.144,48.628-63.537c16.597-35.394,1.17-42.642,17.77-78.041c16.6-35.394,32.027-28.146,48.625-63.536
				c16.601-35.394,1.173-42.642,17.774-78.04c12.84-27.364,24.99-29.229,37.5-45.043c0.66,0.116,1.292,0.175,1.955,0.211
				C412.701,464.407,400.763,467.354,390.448,495.771z"/>
		</g>
		<g>
			<path fill="#BCBEC0" d="M402.806,425.19c0,0.152,0,0.336,0.03,0.482c-17.773-9.594-21.71-21.228-50.913-29.111
				c-37.739-10.195-42.189,6.256-79.931-3.939c-37.739-10.189-33.289-26.668-71.028-36.863c-37.739-10.194-42.189,6.256-79.901-3.94
				c-37.739-10.195-33.289-26.643-71.028-36.867c-37.74-10.195-42.19,6.285-79.929-3.941c-37.742-10.191-33.289-26.643-71-36.838
				c-37.739-10.192-42.192,6.256-79.932-3.937c-31.212-8.451-33.53-21.17-54.853-31.097c16.271-57.918,39.938-112.735,69.95-163.377
				c17.984,15.036,16.992,27.934,44.984,44.081c33.863,19.549,42.373,4.786,76.233,24.334c33.86,19.544,25.32,34.31,59.181,53.854
				c33.863,19.548,42.373,4.783,76.232,24.33c33.833,19.548,25.321,34.31,59.181,53.857c33.86,19.545,42.373,4.782,76.232,24.298
				c33.861,19.547,25.321,34.312,59.181,53.859c33.86,19.545,42.372,4.813,76.233,24.357c26.163,15.092,27.033,27.361,41.709,41.164
				C403.017,421.584,402.806,423.357,402.806,425.19z"/>
			<path fill="#BCBEC0" d="M406.565,412.773c-1.084,1.592-1.955,3.366-2.587,5.232c-13.381-15.1-13.112-27.363-37.831-44.776
				c-31.997-22.494-41.798-8.542-73.765-31.034c-31.967-22.495-22.163-36.447-54.16-58.939
				c-31.967-22.492-41.771-8.54-73.735-31.032c-31.966-22.498-22.165-36.45-54.128-58.911
				c-31.969-22.496-41.801-8.571-73.768-31.035C4.626,139.782,14.43,125.83-17.539,103.338
				c-31.963-22.495-41.768-8.543-73.734-31.035c-26.432-18.584-24.297-31.334-40.833-47.904
				c34.792-48.296,75.689-91.87,121.577-129.609C1.199-84.942-4.124-73.184,16.626-48.436C41.764-18.514,54.817-29.46,79.927,0.492
				c25.137,29.922,12.059,40.896,37.199,70.818c25.137,29.95,38.191,19.006,63.301,48.927c25.14,29.95,12.089,40.925,37.199,70.849
				c25.137,29.95,38.191,19.006,63.328,48.957c25.112,29.92,12.062,40.897,37.171,70.849c25.137,29.951,38.191,18.976,63.328,48.927
				C400.881,382.973,397.513,394.76,406.565,412.773z"/>
			<path fill="#BCBEC0" d="M411.917,407.182c-1.564,1.14-2.975,2.49-4.151,3.996c-7.456-18.733-3.005-30.221-20.296-54.998
				c-22.345-32.088-36.328-22.344-58.7-54.402c-22.346-32.086-8.36-41.826-30.703-73.881
				c-22.345-32.087-36.356-22.349-58.701-54.401c-22.345-32.058-8.36-41.829-30.702-73.887
				c-22.345-32.087-36.355-22.313-58.701-54.399c-22.345-32.058-8.359-41.801-30.702-73.887
				C96.916-60.735,82.933-50.991,60.56-83.048c-18.463-26.491-12.089-37.738-21.982-58.972
				c48.717-33.317,101.944-60.473,158.569-80.409c4.147,23.152-4.963,32.385,6.105,62.818
				c13.381,36.718,29.407,30.886,42.761,67.632c13.381,36.718-2.645,42.551,10.736,79.268c13.354,36.75,29.38,30.914,42.761,67.632
				c13.354,36.747-2.676,42.581,10.708,79.299c13.35,36.747,29.379,30.913,42.76,67.633c13.354,36.746-2.646,42.58,10.703,79.299
				c13.384,36.747,29.413,30.913,42.766,67.662C416.788,377.231,409.541,387.154,411.917,407.182z"/>
			<path fill="#BCBEC0" d="M433.721,34.262c0,39.092-17.051,39.092-17.051,78.185c0,39.095,17.051,39.095,17.051,78.188
				c0,39.092-17.051,39.092-17.051,78.188c0,39.092,17.051,39.092,17.051,78.185c0,30.226-10.194,37.076-14.797,56.719
				c-1.894,0.537-3.699,1.319-5.324,2.37c-0.571-20.175,7.52-29.438-0.238-58.664c-10.043-37.773-26.524-33.412-36.567-71.179
				c-10.015-37.803,6.466-42.165-3.58-79.965c-10.045-37.77-26.524-33.378-36.536-71.182c-10.045-37.767,6.433-42.156-3.609-79.929
				c-10.043-37.769-26.493-33.407-36.536-71.18c-10.046-37.769,6.435-42.159-3.58-79.93c-10.043-37.769-26.524-33.38-36.567-71.18
				c-8.301-31.274,1.592-39.635-0.482-63.061c54.128-13.743,110.844-21.05,169.273-21.05c2.376,0,4.78,0,7.161,0.061
				c-4.032,23.005-15.67,28.628-15.67,60.925c0,39.065,17.051,39.065,17.051,78.157c0,39.094-17.051,39.094-17.051,78.154
				C416.669-4.832,433.721-4.832,433.721,34.262z"/>
			<path fill="#BCBEC0" d="M631.108-165.445c-13.381,36.721,2.65,42.553-10.73,79.271c-13.353,36.747-29.385,30.914-42.732,67.631
				c-13.387,36.747,2.646,42.583-10.736,79.3c-13.353,36.746-29.379,30.912-42.76,67.633c-13.354,36.744,2.645,42.578-10.709,79.295
				c-13.382,36.749-29.412,30.915-42.761,67.631c-13.381,36.75,2.646,42.584-10.735,79.33
				c-10.348,28.448-22.287,31.364-33.321,48.262h-0.031c-0.481-0.059-0.931-0.089-1.413-0.089c-1.475,0-2.917,0.152-4.331,0.425
				c6.347-19.13,17.114-25.052,19.82-55.152c3.488-38.942-13.504-40.476-9.987-79.419c3.488-38.945,20.452-37.409,23.968-76.352
				c3.488-38.914-13.498-40.445-10.01-79.391c3.488-38.911,20.474-37.406,23.962-76.322c3.494-38.941-13.47-40.476-9.981-79.419
				c3.488-38.91,20.451-37.378,23.967-76.322c3.488-38.91-13.504-40.445-10.015-79.39c2.89-32.176,15.005-36.685,21.05-59.329h0.033
				c60.352,5.984,118.361,19.756,173.089,40.355C655.076-197.079,642.177-195.876,631.108-165.445z"/>
			<path fill="#BCBEC0" d="M871.862-95.978c-17.89,15.005-30.428,11.846-51.179,36.567c-25.109,29.95-12.061,40.896-37.17,70.847
				c-25.144,29.952-38.191,18.978-63.302,48.929c-25.142,29.951-12.088,40.896-37.198,70.847
				c-25.137,29.95-38.191,18.976-63.329,48.931c-25.109,29.949-12.061,40.894-37.17,70.845
				c-25.138,29.953-38.191,18.976-63.329,48.927c-25.143,29.953-12.061,40.9-37.198,70.878
				c-19.459,23.128-31.669,21.83-47.818,33.924c-1.741-0.78-3.604-1.327-5.562-1.599c12.511-15.847,24.66-17.707,37.498-45.104
				c16.604-35.395,1.176-42.61,17.773-78.035c16.603-35.396,32.029-28.148,48.627-63.545c16.597-35.391,1.175-42.61,17.772-78.002
				c16.598-35.396,32.025-28.148,48.629-63.542c16.597-35.396,1.169-42.642,17.739-78.036
				c16.597-35.396,32.059-28.148,48.655-63.541c16.569-35.367,1.143-42.611,17.74-78.008c13.747-29.29,26.706-29.379,40.148-48.626
				C777.048-167.341,826.967-134.531,871.862-95.978z"/>
			<path fill="#BCBEC0" d="M1023.308,88.183c-22.043,8.087-32.719,0.751-60.717,16.899c-33.86,19.547-25.32,34.31-59.181,53.856
				c-33.832,19.548-42.373,4.782-76.204,24.331c-33.861,19.545-25.349,34.31-59.209,53.854
				c-33.827,19.548-42.367,4.786-76.204,24.334c-33.86,19.544-25.349,34.279-59.209,53.823c-33.827,19.548-42.373,4.783-76.2,24.328
				c-33.86,19.58-25.353,34.313-59.213,53.89c-26.192,15.123-37.227,9.713-56.536,15.517c-1.381-1.355-2.943-2.495-4.658-3.43
				c17.168-10.557,29.23-8.177,50.642-29.499c27.693-27.604,15.665-39.664,43.393-67.269c27.693-27.577,39.722-15.489,67.421-43.063
				c27.693-27.606,15.665-39.666,43.392-67.272c27.695-27.573,39.723-15.487,67.422-43.063
				c27.694-27.574,15.666-39.663,43.359-67.237c27.699-27.576,39.728-15.489,67.427-43.094
				c27.694-27.576,15.693-39.638,43.359-67.212c22.887-22.796,35.097-18.525,54.251-31.874
				C958.021-11.565,993.955,36.187,1023.308,88.183z"/>
			<path fill="#BCBEC0" d="M1102.484,313.057c-23.456,0.061-30.977-10.464-62.818-4.874c-38.495,6.798-35.546,23.608-74.036,30.375
				c-38.491,6.795-41.44-10.013-79.932-3.22c-38.491,6.797-35.546,23.576-74.037,30.375c-38.49,6.796-41.44-10.015-79.959-3.22
				c-38.49,6.797-35.512,23.574-74.009,30.37c-38.524,6.802-41.468-10.012-79.959-3.214c-38.524,6.796-35.546,23.577-74.064,30.372
				c-29.773,5.263-38.285-3.613-58.433-4.751c-0.81-1.744-1.896-3.342-3.216-4.78c19.752-4.096,30.25,2.283,57.705-10.437
				c35.457-16.451,28.299-31.935,63.751-48.354c35.484-16.449,42.644-0.991,78.101-17.44c35.48-16.453,28.293-31.907,63.778-48.354
				c35.451-16.421,42.615-0.962,78.096-17.413c35.457-16.451,28.265-31.905,63.755-48.356c35.452-16.417,42.611-0.962,78.097-17.409
				c35.452-16.447,28.264-31.909,63.723-48.356c29.347-13.595,39.333-5.323,62.036-11.459
				C1075.179,196.349,1092.681,253.394,1102.484,313.057z"/>
			<path fill="#BCBEC0" d="M1111.596,425.19c0,43.157-3.97,85.347-11.606,126.271c-22.043-7.972-25.53-20.446-57.378-26.044
				c-38.491-6.793-41.44,9.987-79.932,3.22c-38.49-6.796-35.541-23.577-74.009-30.37c-38.519-6.796-41.464,10.013-79.959,3.217
				c-38.491-6.793-35.541-23.573-74.032-30.369c-38.489-6.796-41.468,10.012-79.964,3.214c-38.49-6.797-35.547-23.576-74.036-30.373
				c-38.491-6.796-41.47,10.015-79.961,3.22c-29.768-5.263-34.764-16.481-53.285-24.448c-0.211-1.985-0.66-3.851-1.354-5.626
				c19.937,2.947,27.633,12.512,57.74,9.958c38.973-3.339,37.524-20.33,76.471-23.636c38.939-3.343,40.387,13.648,79.36,10.344
				c38.939-3.343,37.497-20.33,76.438-23.641c38.944-3.309,40.387,13.655,79.332,10.348c38.973-3.305,37.499-20.299,76.472-23.638
				c38.939-3.305,40.382,13.684,79.333,10.345c38.939-3.305,37.492-20.295,76.438-23.637c32.175-2.736,38.763,8.391,62.036,10.467
				C1110.963,390.914,1111.596,407.964,1111.596,425.19z"/>
			<path fill="#BCBEC0" d="M1086.064,611.277c-16.27,57.947-39.965,112.769-69.943,163.379
				c-18.018-15.037-16.992-27.94-45.023-44.113c-33.827-19.548-42.367-4.783-76.2-24.327c-33.86-19.549-25.319-34.285-59.18-53.832
				c-33.86-19.545-42.373-4.78-76.233-24.325c-33.854-19.549-25.314-34.315-59.18-53.86c-33.86-19.548-42.372-4.78-76.228-24.327
				c-33.866-19.548-25.32-34.313-59.187-53.859c-33.859-19.545-42.367-4.781-76.232-24.328
				c-26.191-15.123-27.033-27.364-41.734-41.194c0.449-1.686,0.66-3.461,0.66-5.299c0-0.147,0-0.3-0.027-0.446
				c17.738,9.591,21.709,21.197,50.906,29.08c37.742,10.217,42.194-6.256,79.932,3.963c37.742,10.197,33.289,26.648,71.03,36.838
				c37.742,10.225,42.156-6.25,79.898,3.942c37.742,10.226,33.289,26.677,71.031,36.866c37.742,10.198,42.188-6.255,79.932,3.942
				c37.708,10.195,33.289,26.671,70.998,36.865c37.742,10.195,42.188-6.254,79.931,3.94
				C1062.431,588.636,1064.742,601.352,1086.064,611.277z"/>
			<path fill="#BCBEC0" d="M982.499,826.019c-34.792,48.262-75.689,91.837-121.583,129.579
				c-11.724-20.241-6.405-32.027-27.156-56.743c-25.137-29.953-38.186-18.977-63.329-48.931
				c-25.108-29.947-12.061-40.897-37.17-70.845c-25.137-29.953-38.19-18.976-63.328-48.93
				c-25.11-29.951-12.056-40.898-37.165-70.846c-25.144-29.953-38.192-18.976-63.336-48.933
				c-25.108-29.948-12.055-40.895-37.197-70.843c-25.109-29.956-38.191-19.006-63.301-48.961
				c-19.426-23.124-16.06-34.941-25.11-52.925c1.082-1.622,1.958-3.366,2.558-5.235c13.408,15.068,13.143,27.365,37.857,44.749
				c31.97,22.498,41.802,8.571,73.766,31.065c31.969,22.49,22.164,36.417,54.134,58.912c31.965,22.495,41.796,8.567,73.765,31.034
				c31.964,22.486,22.16,36.445,54.129,58.939c31.964,22.495,41.768,8.541,73.737,31.035c31.992,22.486,22.159,36.444,54.129,58.909
				c31.964,22.494,41.796,8.54,73.765,31.034C968.093,796.699,965.963,809.451,982.499,826.019z"/>
			<path fill="#BCBEC0" d="M811.812,992.464c-48.716,33.261-101.914,60.387-158.537,80.324c-4.182-23.13,4.929-32.363-6.167-62.763
				c-13.349-36.743-29.38-30.91-42.761-67.631c-13.354-36.715,2.679-42.553-10.702-79.297
				c-13.354-36.719-29.386-30.882-42.767-67.633c-13.348-36.719,2.65-42.552-10.702-79.295
				c-13.382-36.72-29.414-30.89-42.762-67.633c-13.386-36.721,2.645-42.553-10.707-79.303
				c-13.381-36.715-29.408-30.912-42.795-67.631c-10.314-28.414-3.094-38.341-5.467-58.371c1.563-1.14,2.972-2.495,4.208-3.998
				c7.397,18.734,2.973,30.194,20.264,55.002c22.348,32.059,36.327,22.315,58.703,54.4c22.343,32.059,8.362,41.802,30.705,73.887
				c22.342,32.059,36.323,22.313,58.698,54.4c22.343,32.056,8.362,41.802,30.705,73.887c22.342,32.056,36.321,22.313,58.697,54.37
				c22.344,32.086,8.357,41.829,30.7,73.888c22.348,32.05,36.327,22.313,58.676,54.397
				C808.262,959.984,801.919,971.232,811.812,992.464z"/>
			<path fill="#BCBEC0" d="M594.481,1090.562c-54.156,13.738-110.87,21.05-169.303,21.05c-2.374,0-4.752,0-7.126-0.063
				c4.032-22.972,15.668-28.598,15.668-60.896c0-39.093-17.051-39.093-17.051-78.157c0-39.092,17.051-39.092,17.051-78.185
				c0-39.095-17.051-39.095-17.051-78.188c0-39.092,17.051-39.092,17.051-78.188c0-39.056-17.051-39.056-17.051-78.151
				c0-39.092,17.051-39.092,17.051-78.185c0-39.092-17.051-39.092-17.051-78.188c0-30.222,10.196-37.112,14.793-56.718
				c1.896-0.541,3.699-1.323,5.324-2.374c0.57,20.177-7.52,29.407,0.244,58.64c10.043,37.8,26.518,33.408,36.533,71.208
				c10.047,37.773-6.434,42.159,3.609,79.933c10.043,37.8,26.523,33.408,36.539,71.181c10.043,37.8-6.438,42.159,3.609,79.928
				c10.01,37.804,26.49,33.41,36.533,71.182c10.043,37.8-6.433,42.159,3.577,79.929c10.048,37.803,26.524,33.409,36.571,71.182
				C602.301,1058.775,592.407,1067.162,594.481,1090.562z"/>
			<path fill="#BCBEC0" d="M419.706,581.715c-3.488,38.939-20.479,37.41-23.967,76.354c-3.488,38.94,13.503,40.474,10.015,79.386
				c-3.488,38.945-20.479,37.412-23.968,76.352c-3.488,38.949,13.47,40.451,9.985,79.391c-3.491,38.913-20.479,37.41-23.97,76.355
				c-3.489,38.912,13.503,40.445,10.015,79.354c-2.886,32.211-15.006,36.722-21.05,59.333
				c-60.351-5.983-118.422-19.758-173.152-40.356c11.728-20.385,24.599-21.619,35.665-52.024
				c13.381-36.744-2.645-42.577,10.705-79.296c13.384-36.722,29.41-30.884,42.764-67.633c13.381-36.715-2.645-42.552,10.736-79.297
				c13.351-36.721,29.38-30.888,42.761-67.631c13.354-36.723-2.646-42.553,10.708-79.305c13.38-36.714,29.379-30.882,42.76-67.632
				c13.381-36.744-2.647-42.547,10.736-79.296c10.315-28.416,22.253-31.363,33.289-48.231h0.028
				c0.455,0.058,0.931,0.058,1.414,0.058c1.503,0,2.946-0.152,4.36-0.421c-6.346,19.123-17.109,25.048-19.815,55.149
				C406.235,541.272,423.193,542.775,419.706,581.715z"/>
			<path fill="#BCBEC0" d="M421.782,447.328c-12.511,15.814-24.66,17.679-37.5,45.043c-16.601,35.398-1.173,42.646-17.774,78.04
				c-16.597,35.391-32.024,28.143-48.625,63.536c-16.6,35.399-1.173,42.647-17.77,78.041c-16.603,35.394-32.03,28.146-48.628,63.537
				c-16.598,35.397-1.173,42.612-17.773,78.012c-16.57,35.391-32.024,28.173-48.625,63.537c-16.6,35.393-1.145,42.641-17.742,78.009
				c-13.742,29.286-26.673,29.38-40.146,48.625h-0.03c-53.829-25.982-103.749-58.792-148.645-97.313
				c17.893-15.036,30.403-11.848,51.151-36.597c25.143-29.92,12.089-40.896,37.199-70.817c25.112-29.954,38.191-19.004,63.3-48.93
				c25.143-29.947,12.089-40.925,37.199-70.845c25.143-29.955,38.194-19.008,63.3-48.931c25.143-29.947,12.089-40.925,37.199-70.845
				c25.143-29.954,38.194-19.008,63.334-48.961c25.11-29.947,12.056-40.897,37.199-70.846
				c19.425-23.158,31.636-21.864,47.781-33.924C417.931,446.482,419.827,447.029,421.782,447.328z"/>
			<path fill="#BCBEC0" d="M414.415,444.803c-17.174,10.613-29.229,8.204-50.641,29.526c-27.727,27.579-15.699,39.665-43.395,67.243
				c-27.696,27.604-39.725,15.516-67.418,43.094c-27.727,27.573-15.7,39.66-43.396,67.237
				c-27.696,27.575-39.725,15.516-67.421,43.094c-27.697,27.575-15.668,39.661-43.362,67.237
				c-27.697,27.575-39.755,15.489-67.452,43.063c-27.697,27.575-15.668,39.664-43.362,67.245
				c-22.886,22.761-35.064,18.49-54.22,31.874c-41.38-42.433-77.314-90.185-106.636-142.182
				c22.015-8.087,32.657-0.751,60.684-16.927c33.832-19.548,25.323-34.313,59.183-53.86c33.83-19.517,42.37-4.78,76.203-24.297
				c33.86-19.547,25.351-34.312,59.181-53.86c33.86-19.547,42.373-4.78,76.232-24.327c33.86-19.545,25.348-34.313,59.181-53.856
				c33.86-19.548,42.4-4.783,76.233-24.328c33.86-19.548,25.348-34.312,59.208-53.86c26.193-15.124,37.198-9.715,56.535-15.519
				C411.138,442.753,412.701,443.898,414.415,444.803z"/>
			<path fill="#BCBEC0" d="M408.337,439.928c-19.755,4.057-30.25-2.285-57.675,10.436c-35.454,16.445-28.298,31.903-63.783,48.356
				c-35.454,16.445-42.611,0.993-78.096,17.407c-35.454,16.453-28.268,31.911-63.752,48.356
				c-35.454,16.449-42.639,0.992-78.096,17.415c-35.452,16.444-28.298,31.903-63.75,48.356
				c-35.457,16.444-42.644,0.992-78.095,17.406c-35.458,16.453-28.299,31.906-63.756,48.355
				c-29.349,13.62-39.301,5.352-62.006,11.46c-24.12-53.408-41.618-110.483-51.422-170.146c23.454-0.028,30.974,10.497,62.821,4.869
				c38.491-6.794,35.513-23.574,74.003-30.37c38.493-6.769,41.468,10.013,79.965,3.22c38.49-6.769,35.512-23.577,74.034-30.372
				c38.493-6.766,41.438,10.015,79.929,3.218c38.524-6.768,35.546-23.575,74.037-30.341c38.494-6.801,41.472,9.979,79.962,3.183
				c38.494-6.766,35.546-23.576,74.037-30.342c29.801-5.263,38.311,3.577,58.46,4.723
				C405.964,436.861,407.045,438.483,408.337,439.928z"/>
			<path fill="#BCBEC0" d="M404.312,433.284c-19.939-2.92-27.638-12.511-57.77-9.927c-38.942,3.309-37.501,20.3-76.44,23.635
				c-38.973,3.314-40.421-13.678-79.36-10.342c-38.945,3.305-37.5,20.299-76.444,23.604c-38.942,3.341-40.387-13.649-79.36-10.342
				c-38.943,3.336-37.498,20.326-76.44,23.635c-38.943,3.341-40.387-13.65-79.33-10.345c-38.943,3.338-37.498,20.329-76.443,23.634
				c-32.175,2.768-38.763-8.356-62.036-10.431c-1.265-16.903-1.894-33.982-1.894-51.215c0-43.118,3.967-85.31,11.606-126.236
				c22.042,7.967,25.534,20.419,57.348,26.042c38.49,6.766,41.468-10.016,79.959-3.22c38.49,6.769,35.515,23.576,74.009,30.342
				c38.49,6.796,41.468-9.983,79.959-3.186c38.491,6.766,35.545,23.576,74.037,30.342c38.491,6.793,41.469-9.984,79.959-3.188
				c38.494,6.766,35.516,23.579,74.037,30.345c38.494,6.796,41.441-9.985,79.962-3.188c29.771,5.231,34.761,16.48,53.286,24.416
				C403.169,429.644,403.618,431.51,404.312,433.284z"/>
		</g>
		<radialGradient id="SVGID_3_" cx="425.1943" cy="425.1948" r="703.9441" gradientUnits="userSpaceOnUse">
			<stop  offset="0.1882" style="stop-color:#000000"/>
			<stop  offset="0.9301" style="stop-color:#000000;stop-opacity:0"/>
		</radialGradient>
		<path opacity="0.8" fill="url(#SVGID_3_)" d="M-278.75,425.193c0,388.779,315.168,703.945,703.943,703.945
			c388.781,0,703.945-315.166,703.945-703.945c0-388.778-315.164-703.942-703.945-703.942
			C36.418-278.749-278.75,36.415-278.75,425.193z"/>
		<g>
			<g>
				<g>
					<path fill="none" stroke="#58595B" stroke-width="3" stroke-miterlimit="10" d="M784.3,472.413
						c0.655-5.197,1.254-10.393,1.681-15.645l10.049,0.879c0.028,0,0.028,0,0.056,0c7.779,0.541,27.399-27,27.399-32.452
						c0-5.45-19.62-32.992-27.399-32.454c-0.027,0-0.027,0-0.056,0l-10.021,0.882c-0.455-5.196-0.998-10.364-1.647-15.502
						c-5.195,0.709-9.965-2.867-10.792-8.036c-0.848-5.195,2.641-10.051,7.809-10.987c-0.964-5.168-2.013-10.306-3.205-15.389
						l9.738-2.244c0,0,0,0,0.055-0.027c7.525-1.873,17.69-34.129,16.016-39.324c-1.676-5.166-28.848-25.296-36.09-22.401
						c0,0.027,0,0.027-0.083,0.027l-9.144,3.892c-2.014-4.798-4.143-9.542-6.389-14.225c-4.714,2.328-10.42,0.424-12.86-4.26
						c-2.356-4.686-0.51-10.419,4.115-12.861c-2.495-4.629-5.108-9.2-7.809-13.687l8.546-5.138c0,0,0,0,0.061-0.027
						c6.61-4.117,6.3-37.934,3.094-42.334c-3.21-4.429-35.263-15.161-41.257-10.165c0,0.027,0,0.027-0.027,0.027l-7.582,6.589
						c-3.403-3.945-6.926-7.809-10.503-11.585c-3.72,3.663-9.737,3.636-13.458-0.086c-3.748-3.746-3.748-9.765-0.145-13.514
						c-3.775-3.605-7.69-7.126-11.611-10.562l6.588-7.554c0-0.027,0-0.027,0.027-0.027c4.996-5.991-5.762-38.047-10.165-41.255
						c-4.397-3.208-38.213-3.521-42.361,3.095c0,0.028,0,0.028-0.027,0.058l-5.141,8.546c-4.458-2.726-8.973-5.31-13.541-7.78
						c-2.44,4.686-8.208,6.502-12.922,4.118c-4.68-2.412-6.582-8.149-4.226-12.892c-4.686-2.242-9.454-4.399-14.284-6.474
						l3.858-9.114c0-0.027,0-0.027,0.034-0.056c2.923-7.212-17.208-34.384-22.403-36.059c-5.196-1.702-37.448,8.46-39.323,16.013
						c-0.027,0.031-0.027,0.031-0.027,0.059l-2.246,9.682c-5.052-1.191-10.164-2.242-15.306-3.21
						c-0.848,5.226-5.788,8.774-11.013,7.951c-5.251-0.823-8.801-5.709-8.007-10.933c-5.17-0.651-10.365-1.22-15.59-1.675
						l0.883-9.937c0-0.027,0-0.027,0-0.057c0.537-7.779-27-27.399-32.453-27.399c-5.451,0-32.995,19.62-32.452,27.399
						c0,0.029,0,0.029,0,0.057l0.876,9.937c-5.251,0.455-10.447,1.023-15.616,1.675c0.827,5.224-2.778,10.109-8.007,10.933
						c-5.224,0.852-10.104-2.726-10.985-7.922h-0.028c-5.141,0.938-10.221,1.989-15.278,3.181l-2.24-9.682
						c0-0.027,0-0.027-0.028-0.059c-1.875-7.553-34.132-17.715-39.322-16.013c-5.168,1.675-25.332,28.847-22.403,36.087
						c0.027,0,0.027,0,0.027,0.027l3.859,9.114c-4.824,2.074-9.593,4.231-14.334,6.502c2.384,4.714,0.51,10.479-4.204,12.863
						c-4.713,2.384-10.447,0.567-12.893-4.118c-4.569,2.471-9.083,5.055-13.542,7.78l-5.14-8.546
						c-0.028-0.029-0.028-0.029-0.056-0.058c-4.115-6.615-37.931-6.303-42.334-3.095c-4.425,3.208-15.161,35.264-10.165,41.255
						c0.028,0,0.028,0,0.028,0.027l6.588,7.554c-3.943,3.436-7.835,6.956-11.64,10.562c3.633,3.776,3.605,9.796-0.11,13.514
						c-3.749,3.722-9.743,3.749-13.514,0.114c-3.549,3.776-7.071,7.639-10.453,11.557l-7.581-6.589c-0.028,0-0.028,0-0.028-0.027
						c-5.989-4.996-38.047,5.736-41.252,10.165c-3.211,4.4-3.521,38.217,3.095,42.334c0.027,0.027,0.027,0.027,0.055,0.055
						l8.545,5.141c-2.723,4.486-5.307,9.027-7.808,13.656c4.63,2.442,6.449,8.207,4.059,12.861
						c-2.385,4.684-8.091,6.616-12.804,4.287c-2.24,4.655-4.37,9.399-6.389,14.197l-9.2-3.892c0,0,0,0-0.055-0.027
						c-7.209-2.895-34.382,17.235-36.084,22.401c-1.675,5.195,8.49,37.451,16.038,39.324c0.033,0.027,0.033,0.027,0.061,0.027
						l9.738,2.244c-1.192,5.11-2.246,10.251-3.211,15.416c5.141,0.909,8.662,5.792,7.808,10.988
						c-0.821,5.169-5.618,8.717-10.786,8.035c-0.655,5.141-1.22,10.278-1.647,15.475l-10.026-0.882c-0.028,0-0.028,0-0.056,0
						c-7.78-0.538-27.4,27.004-27.4,32.454c0,5.452,19.62,32.993,27.4,32.452c0.028,0,0.028,0,0.056,0l10.054-0.879
						c0.427,5.252,0.993,10.476,1.675,15.672c5.141-0.683,9.938,2.839,10.73,8.035c0.854,5.138-2.64,9.995-7.747,10.961
						c0.965,5.11,2.013,10.191,3.177,15.246l-9.765,2.244c-0.028,0-0.028,0-0.061,0.027c-7.548,1.875-17.712,34.126-16.038,39.323
						c1.702,5.195,28.875,25.297,36.084,22.402c0.028-0.03,0.028-0.03,0.055-0.03l9.261-3.918c2.041,4.855,4.198,9.654,6.471,14.368
						c4.686-2.215,10.303-0.341,12.66,4.313c2.39,4.656,0.626,10.28-3.915,12.777c2.468,4.572,5.052,9.087,7.752,13.545
						l-8.634,5.166c-0.028,0.027-0.028,0.027-0.055,0.058c-6.616,4.118-6.306,37.932-3.095,42.333
						c3.205,4.429,35.263,15.161,41.252,10.163c0-0.027,0-0.027,0.028-0.027l7.669-6.644c3.433,3.975,6.954,7.835,10.558,11.64
						c3.777-3.491,9.655-3.406,13.32,0.257c3.66,3.664,3.776,9.539,0.283,13.315c3.748,3.576,7.636,7.098,11.556,10.478
						l-6.677,7.667c0,0.027,0,0.027-0.028,0.027c-4.996,5.989,5.74,38.045,10.137,41.255c4.431,3.208,38.247,3.519,42.361-3.097
						c0.028-0.028,0.028-0.028,0.056-0.028l5.229-8.687c4.453,2.725,9,5.311,13.598,7.808c2.501-4.486,8.146-6.219,12.749-3.862
						c4.625,2.357,6.56,7.922,4.37,12.607c4.686,2.244,9.399,4.4,14.229,6.443l-3.92,9.256c0,0,0,0-0.027,0.059
						c-2.895,7.212,17.207,34.382,22.403,36.059c5.19,1.703,37.448-8.462,39.322-16.016c0.028-0.027,0.028-0.027,0.028-0.056
						l2.268-9.823c5.085,1.165,10.198,2.243,15.361,3.181c0.998-5.026,5.822-8.435,10.936-7.61
						c5.107,0.795,8.629,5.508,8.063,10.591c5.135,0.683,10.303,1.221,15.527,1.675l-0.876,10.106c0,0.031,0,0.031,0,0.059
						c-0.543,7.78,27,27.397,32.452,27.397c5.453,0,32.99-19.617,32.453-27.397c0-0.027,0-0.027,0-0.059l-0.883-10.106
						c5.225-0.454,10.42-0.992,15.563-1.675c-0.601-5.083,2.949-9.796,8.034-10.591c5.108-0.824,9.938,2.557,10.958,7.61
						c5.14-0.968,10.254-2.016,15.332-3.181l2.274,9.823c0,0.028,0,0.028,0.027,0.056c1.875,7.554,34.127,17.719,39.323,16.016
						c5.168-1.677,25.326-28.847,22.403-36.086c-0.034,0-0.034,0-0.034-0.031l-3.915-9.256c4.825-2.07,9.566-4.199,14.252-6.474
						c-2.185-4.655-0.282-10.22,4.349-12.604c4.624-2.356,10.247-0.597,12.743,3.89c4.603-2.497,9.145-5.083,13.603-7.808
						l5.224,8.687c0.027,0,0.027,0,0.055,0.028c4.121,6.615,37.937,6.305,42.334,3.097c4.403-3.21,15.161-35.266,10.165-41.255
						c-0.027,0-0.027,0-0.027-0.027l-6.671-7.667c3.942-3.407,7.808-6.901,11.584-10.478c-3.493-3.747-3.438-9.651,0.255-13.315
						c3.66-3.663,9.538-3.775,13.314-0.257c3.577-3.805,7.126-7.665,10.563-11.64l7.665,6.644c0.027,0,0.027,0,0.027,0.027
						c5.994,5.026,38.047-5.734,41.257-10.163c3.206-4.401,3.517-38.215-3.094-42.333c-0.061-0.03-0.061-0.03-0.061-0.058
						l-8.629-5.166c2.694-4.458,5.279-8.973,7.78-13.573c-4.547-2.441-6.305-8.121-3.948-12.776
						c2.356-4.627,7.979-6.529,12.666-4.316c2.268-4.711,4.425-9.482,6.443-14.338l9.283,3.918c0.027,0,0.027,0,0.056,0.03
						c7.214,2.923,34.386-17.207,36.062-22.402c1.675-5.197-8.49-37.448-16.016-39.323c-0.055-0.027-0.055-0.027-0.055-0.027
						l-9.772-2.244c1.138-5.055,2.19-10.164,3.156-15.277c-5.085-0.935-8.573-5.792-7.726-10.958
						C774.363,475.279,779.166,471.758,784.3,472.413z"/>
				</g>
			</g>
		</g>
		<g>
			<g>
				<path fill="#D1D3D4" stroke="#A7A9AC" stroke-miterlimit="10" d="M425.137,425.11v0.027L151.832,187.551
					c3.377-3.918,6.899-7.78,10.448-11.557c3.776,3.635,9.766,3.607,13.514-0.111c3.721-3.721,3.749-9.74,0.113-13.517
					c3.805-3.605,7.694-7.126,11.643-10.562L425.137,425.11z"/>
				<path fill="#D1D3D4" stroke="#A7A9AC" stroke-miterlimit="10" d="M425.137,425.252v0.027L187.633,698.474
					c-3.917-3.38-7.78-6.901-11.553-10.478c3.49-3.776,3.377-9.651-0.286-13.315c-3.663-3.663-9.538-3.748-13.314-0.257
					c-3.607-3.805-7.128-7.665-10.564-11.64L425.137,425.252z"/>
				<path fill="#D1D3D4" stroke="#A7A9AC" stroke-miterlimit="10" d="M425.165,425.31L393.62,785.922
					c-5.224-0.454-10.389-0.992-15.53-1.675c0.569-5.083-2.953-9.796-8.063-10.591c-5.11-0.824-9.937,2.584-10.93,7.61
					c-5.168-0.938-10.279-2.016-15.361-3.181L425.165,425.31z"/>
				<path fill="#D1D3D4" stroke="#A7A9AC" stroke-miterlimit="10" d="M611.678,735.611c-4.458,2.725-9,5.311-13.603,7.808
					c-2.496-4.486-8.119-6.246-12.749-3.89c-4.625,2.385-6.527,7.949-4.343,12.604c-4.686,2.274-9.427,4.403-14.252,6.474h-0.032
					L425.278,425.365L611.678,735.611z"/>
				<path fill="#D1D3D4" stroke="#A7A9AC" stroke-miterlimit="10" d="M758.604,566.731c-2.041,4.855-4.198,9.624-6.472,14.338
					c-4.686-2.213-10.304-0.311-12.66,4.316c-2.356,4.655-0.599,10.335,3.942,12.776c-2.495,4.601-5.08,9.115-7.78,13.573
					l-310.27-186.456L758.604,566.731z"/>
				<path fill="#D1D3D4" stroke="#A7A9AC" stroke-miterlimit="10" d="M786.003,393.623l-360.697,31.542l352.862-81.456
					c1.191,5.083,2.246,10.221,3.21,15.389c-5.14,0.937-8.662,5.792-7.809,10.987c0.821,5.169,5.618,8.745,10.786,8.036
					C785.011,383.259,785.576,388.427,786.003,393.623z"/>
				<path fill="#D1D3D4" stroke="#A7A9AC" stroke-miterlimit="10" d="M698.557,187.551L425.251,425.138L662.84,151.805
					c3.942,3.436,7.836,6.956,11.639,10.562c-3.631,3.749-3.631,9.768,0.112,13.517c3.72,3.719,9.743,3.746,13.486,0.083
					C691.653,179.742,695.147,183.605,698.557,187.551z"/>
				<path fill="#D1D3D4" stroke="#A7A9AC" stroke-miterlimit="10" d="M611.761,114.667L425.278,425.023L566.788,91.64
					c4.824,2.074,9.593,4.231,14.279,6.474c-2.357,4.742-0.455,10.479,4.23,12.892c4.714,2.384,10.476,0.567,12.922-4.118
					C602.788,109.357,607.303,111.941,611.761,114.667z"/>
				<path fill="#D1D3D4" stroke="#A7A9AC" stroke-miterlimit="10" d="M425.165,425.082L343.708,72.164
					c5.052-1.191,10.134-2.242,15.275-3.181h0.028c0.879,5.196,5.764,8.773,10.988,7.922c5.224-0.823,8.828-5.705,8.004-10.933
					c5.168-0.651,10.364-1.22,15.616-1.675L425.165,425.082z"/>
				<path fill="#D1D3D4" stroke="#A7A9AC" stroke-miterlimit="10" d="M425.109,425.023L238.625,114.667
					c4.458-2.726,8.973-5.31,13.545-7.78c2.44,4.686,8.177,6.502,12.89,4.118c4.714-2.385,6.585-8.149,4.228-12.863
					c4.714-2.271,9.486-4.428,14.31-6.502L425.109,425.023z"/>
				<path fill="#D1D3D4" stroke="#A7A9AC" stroke-miterlimit="10" d="M506.681,72.164l-81.458,352.918l31.542-360.784
					c5.225,0.455,10.42,1.023,15.59,1.675c-0.8,5.228,2.777,10.109,8.007,10.933c5.225,0.823,10.165-2.726,11.013-7.949
					C496.517,69.922,501.623,70.973,506.681,72.164z"/>
				<path fill="#D1D3D4" stroke="#A7A9AC" stroke-miterlimit="10" d="M758.665,283.631L425.364,425.11l310.358-186.509
					c2.694,4.485,5.308,9.055,7.809,13.684c-4.631,2.442-6.478,8.176-4.093,12.861c2.418,4.687,8.124,6.588,12.838,4.26
					C754.517,274.092,756.646,278.833,758.665,283.631z"/>
				<path fill="#D1D3D4" stroke="#A7A9AC" stroke-miterlimit="10" d="M785.976,456.769c-0.428,5.252-0.992,10.447-1.676,15.645
					c-5.14-0.655-9.937,2.866-10.73,8.034c-0.854,5.166,2.641,10.021,7.748,10.958c-0.965,5.113-2.014,10.223-3.179,15.277
					l-352.833-81.46L785.976,456.769z"/>
				<path fill="#D1D3D4" stroke="#A7A9AC" stroke-miterlimit="10" d="M698.468,662.784c-3.432,3.975-6.953,7.835-10.558,11.64
					c-3.776-3.519-9.654-3.406-13.319,0.257c-3.66,3.664-3.743,9.566-0.256,13.315c-3.776,3.576-7.636,7.07-11.584,10.478
					l-237.5-273.222L698.468,662.784z"/>
				<path fill="#D1D3D4" stroke="#A7A9AC" stroke-miterlimit="10" d="M506.652,778.086c-5.084,1.165-10.192,2.213-15.332,3.181
					c-1.02-5.054-5.85-8.435-10.958-7.61c-5.085,0.795-8.635,5.508-8.034,10.591c-5.143,0.683-10.338,1.221-15.563,1.675
					L425.223,425.31L506.652,778.086z"/>
				<path fill="#D1D3D4" stroke="#A7A9AC" stroke-miterlimit="10" d="M425.109,425.365L283.685,758.607h-0.027
					c-4.827-2.043-9.541-4.199-14.224-6.443c2.185-4.686,0.255-10.25-4.373-12.607c-4.6-2.356-10.25-0.624-12.749,3.862
					c-4.6-2.497-9.142-5.083-13.6-7.808L425.109,425.365z"/>
				<path fill="#D1D3D4" stroke="#A7A9AC" stroke-miterlimit="10" d="M425.023,425.279L114.75,611.735
					c-2.697-4.458-5.279-8.973-7.75-13.545c4.542-2.497,6.303-8.121,3.917-12.777c-2.356-4.654-7.979-6.528-12.663-4.313
					c-2.271-4.714-4.431-9.513-6.474-14.368L425.023,425.279z"/>
				<path fill="#D1D3D4" stroke="#A7A9AC" stroke-miterlimit="10" d="M425.079,425.223l-352.833,81.46
					c-1.165-5.055-2.215-10.136-3.18-15.246c5.11-0.968,8.604-5.823,7.752-10.961c-0.795-5.196-5.595-8.718-10.733-8.035
					c-0.682-5.196-1.25-10.42-1.675-15.672L425.079,425.223z"/>
				<path fill="#D1D3D4" stroke="#A7A9AC" stroke-miterlimit="10" d="M425.079,425.165L64.381,393.623
					c0.427-5.196,0.995-10.337,1.647-15.475c5.168,0.682,9.968-2.866,10.791-8.035c0.852-5.196-2.67-10.079-7.808-10.988
					c0.965-5.165,2.016-10.306,3.208-15.416L425.079,425.165z"/>
				<path fill="#D1D3D4" stroke="#A7A9AC" stroke-miterlimit="10" d="M425.023,425.11L91.725,283.631
					c2.016-4.798,4.146-9.539,6.389-14.197c4.71,2.329,10.419,0.399,12.804-4.287c2.385-4.654,0.569-10.419-4.062-12.861
					c2.501-4.629,5.082-9.17,7.808-13.656L425.023,425.11z"/>
			</g>
			<g>
				<g>
					<g>
						<path fill="#BCBEC0" stroke="#A7A9AC" stroke-miterlimit="10" d="M425.192,26.905V425.11h-0.027v-0.028L393.62,64.298
							l-0.879-9.937c0-0.027,0-0.027,0-0.057C392.2,46.525,419.741,26.905,425.192,26.905z"/>
						<path fill="#BCBEC0" stroke="#A7A9AC" stroke-miterlimit="10" d="M457.648,54.305c0,0.029,0,0.029,0,0.057l-0.883,9.937
							l-31.542,360.784v0.028h-0.031V26.905C430.643,26.905,458.186,46.525,457.648,54.305z"/>
					</g>
					<g>
						<path fill="#BCBEC0" stroke="#A7A9AC" stroke-miterlimit="10" d="M425.192,425.279v398.205
							c-5.451,0-32.992-19.617-32.452-27.397c0-0.027,0-0.027,0-0.059l0.879-10.106l31.545-360.612v-0.03H425.192z"/>
						<path fill="#BCBEC0" stroke="#A7A9AC" stroke-miterlimit="10" d="M457.648,796.028c0,0.031,0,0.031,0,0.059
							c0.537,7.78-27.006,27.397-32.456,27.397V425.279h0.031v0.03l31.542,360.612L457.648,796.028z"/>
					</g>
				</g>
				<g>
					<g>
						<path fill="#BCBEC0" stroke="#A7A9AC" stroke-miterlimit="10" d="M425.165,425.11h-0.028l-0.028-0.087L283.599,91.64
							l-3.859-9.114c0-0.027,0-0.027-0.027-0.027c-2.926-7.24,17.232-34.412,22.4-36.087l11.102,34.157l111.951,344.514V425.11z"/>
						<rect x="425.165" y="425.138" fill="#BCBEC0" stroke="#A7A9AC" stroke-miterlimit="10" width="0.027" height="0.027"/>
						<rect x="425.192" y="425.223" fill="#BCBEC0" stroke="#A7A9AC" stroke-miterlimit="10" width="0.031" height="0.029"/>
						<path fill="#BCBEC0" stroke="#A7A9AC" stroke-miterlimit="10" d="M425.165,425.082L313.214,80.568l-11.102-34.157
							c5.196-1.702,37.448,8.462,39.322,16.013c0.031,0.031,0.031,0.031,0.031,0.059l2.243,9.682L425.165,425.082z"/>
						<rect x="425.165" y="425.11" fill="#BCBEC0" stroke="#A7A9AC" stroke-miterlimit="10" width="0.027" height="0.027"/>
					</g>
					<g>
						<rect x="425.192" y="425.252" fill="#BCBEC0" stroke="#A7A9AC" stroke-miterlimit="10" width="0.031" height="0.027"/>
						<path fill="#BCBEC0" stroke="#A7A9AC" stroke-miterlimit="10" d="M548.277,803.98c-5.196,1.703-37.454-8.462-39.328-16.016
							c-0.028-0.027-0.028-0.027-0.028-0.056l-2.269-9.823L425.223,425.31L548.277,803.98z"/>
						<rect x="425.165" y="425.138" fill="#BCBEC0" stroke="#A7A9AC" stroke-miterlimit="10" width="0.027" height="0.027"/>
						<rect x="425.192" y="425.223" fill="#BCBEC0" stroke="#A7A9AC" stroke-miterlimit="10" width="0.031" height="0.029"/>
						<path fill="#BCBEC0" stroke="#A7A9AC" stroke-miterlimit="10" d="M548.277,803.98L425.223,425.31v-0.03l0.055,0.086
							l141.421,333.242h0.032l3.915,9.256c0,0.031,0,0.031,0.028,0.031C573.604,775.134,553.44,802.304,548.277,803.98z"/>
					</g>
				</g>
				<g>
					<g>
						<path fill="#BCBEC0" stroke="#A7A9AC" stroke-miterlimit="10" d="M425.137,425.082v0.028L187.55,151.805l-6.588-7.554
							c0-0.027,0-0.027-0.028-0.027c-4.999-5.991,5.734-38.047,10.165-41.255l234.011,322.055L425.137,425.082z"/>
						<rect x="425.137" y="425.11" fill="#BCBEC0" stroke="#A7A9AC" stroke-miterlimit="10" width="0.028" height="0.027"/>
						<path fill="#BCBEC0" stroke="#A7A9AC" stroke-miterlimit="10" d="M238.625,114.667l186.484,310.356L191.099,102.969
							c4.4-3.208,38.216-3.521,42.331,3.095c0.031,0.03,0.031,0.03,0.059,0.058L238.625,114.667z"/>
						<polygon fill="#BCBEC0" stroke="#A7A9AC" stroke-miterlimit="10" points="425.165,425.11 425.137,425.11 425.109,425.023 
							425.165,425.082 						"/>
						<rect x="425.165" y="425.138" fill="#BCBEC0" stroke="#A7A9AC" stroke-miterlimit="10" width="0.027" height="0.027"/>
					</g>
					<g>
						<rect x="425.192" y="425.195" fill="#BCBEC0" stroke="#A7A9AC" stroke-miterlimit="10" width="0.031" height="0.027"/>
						<path fill="#BCBEC0" stroke="#A7A9AC" stroke-miterlimit="10" d="M659.29,747.421c-4.402,3.21-38.219,3.521-42.334-3.095
							c-0.027-0.028-0.027-0.028-0.055-0.028l-5.224-8.687L425.278,425.365l-0.055-0.056v-0.058h0.028L659.29,747.421z"/>
						<rect x="425.223" y="425.223" fill="#BCBEC0" stroke="#A7A9AC" stroke-miterlimit="10" width="0.028" height="0.029"/>
						<path fill="#BCBEC0" stroke="#A7A9AC" stroke-miterlimit="10" d="M659.29,747.421L425.251,425.252l237.5,273.222l6.677,7.667
							c0,0.027,0,0.027,0.027,0.027C674.451,712.157,663.716,744.213,659.29,747.421z"/>
					</g>
				</g>
				<g>
					<g>
						<path fill="#BCBEC0" stroke="#A7A9AC" stroke-miterlimit="10" d="M102.968,191.1L425.023,425.11l-310.36-186.481l-8.545-5.141
							c-0.028-0.027-0.028-0.027-0.055-0.055C99.447,229.316,99.757,195.5,102.968,191.1z"/>
						<polygon fill="#BCBEC0" stroke="#A7A9AC" stroke-miterlimit="10" points="425.051,425.11 425.109,425.165 425.079,425.165 
													"/>
						<rect x="425.137" y="425.165" fill="#BCBEC0" stroke="#A7A9AC" stroke-miterlimit="10" width="0.028" height="0.03"/>
						<path fill="#BCBEC0" stroke="#A7A9AC" stroke-miterlimit="10" d="M425.137,425.138v0.027h-0.028l-0.086-0.055L102.968,191.1
							c3.208-4.429,35.263-15.161,41.252-10.165c0,0.027,0,0.027,0.031,0.027l7.58,6.589L425.137,425.138z"/>
					</g>
					<g>
						<path fill="#BCBEC0" stroke="#A7A9AC" stroke-miterlimit="10" d="M747.419,659.292c-3.206,4.429-35.264,15.189-41.253,10.163
							c0-0.027,0-0.027-0.027-0.027l-7.671-6.644L425.251,425.252v-0.029h0.027l0.086,0.057L747.419,659.292z"/>
						<rect x="425.223" y="425.195" fill="#BCBEC0" stroke="#A7A9AC" stroke-miterlimit="10" width="0.028" height="0.027"/>
						<polygon fill="#BCBEC0" stroke="#A7A9AC" stroke-miterlimit="10" points="425.306,425.223 425.337,425.279 425.278,425.223 
													"/>
						<path fill="#BCBEC0" stroke="#A7A9AC" stroke-miterlimit="10" d="M747.419,659.292L425.364,425.279l310.27,186.456
							l8.635,5.166c0.027,0.027,0.027,0.027,0.055,0.058C750.939,621.073,750.629,654.891,747.419,659.292z"/>
					</g>
				</g>
				<g>
					<g>
						<path fill="#BCBEC0" stroke="#A7A9AC" stroke-miterlimit="10" d="M46.408,302.116l378.671,123.049l-352.86-81.456
							l-9.741-2.244c-0.028,0-0.028,0-0.056-0.027C54.87,339.564,44.706,307.309,46.408,302.116z"/>
						<rect x="425.109" y="425.165" fill="#BCBEC0" stroke="#A7A9AC" stroke-miterlimit="10" width="0.028" height="0.03"/>
						<path fill="#BCBEC0" stroke="#A7A9AC" stroke-miterlimit="10" d="M425.051,425.11l0.058,0.055h-0.03L46.408,302.116
							c1.677-5.169,28.847-25.299,36.059-22.404c0.058,0.027,0.058,0.027,0.058,0.027l9.2,3.892L425.023,425.11H425.051z"/>
						<rect x="425.137" y="425.165" fill="#BCBEC0" stroke="#A7A9AC" stroke-miterlimit="10" width="0.028" height="0.03"/>
						<rect x="425.223" y="425.195" fill="#BCBEC0" stroke="#A7A9AC" stroke-miterlimit="10" width="0.028" height="0.027"/>
					</g>
					<g>
						<rect x="425.137" y="425.165" fill="#BCBEC0" stroke="#A7A9AC" stroke-miterlimit="10" width="0.028" height="0.03"/>
						<rect x="425.223" y="425.195" fill="#BCBEC0" stroke="#A7A9AC" stroke-miterlimit="10" width="0.028" height="0.027"/>
						<path fill="#BCBEC0" stroke="#A7A9AC" stroke-miterlimit="10" d="M803.976,548.277c-1.674,5.195-28.848,25.325-36.056,22.399
							c-0.028-0.027-0.028-0.027-0.056-0.027l-9.261-3.918L425.364,425.279h-0.027l-0.059-0.057h0.028L803.976,548.277z"/>
						<polygon fill="#BCBEC0" stroke="#A7A9AC" stroke-miterlimit="10" points="425.251,425.195 425.278,425.223 425.251,425.223 
													"/>
						<path fill="#BCBEC0" stroke="#A7A9AC" stroke-miterlimit="10" d="M803.976,548.277L425.337,425.252l-0.031-0.029
							l352.833,81.46l9.767,2.24c0.027,0,0.027,0,0.061,0.031C795.514,510.829,805.678,543.08,803.976,548.277z"/>
					</g>
				</g>
				<g>
					<g>
						<path fill="#BCBEC0" stroke="#A7A9AC" stroke-miterlimit="10" d="M425.109,425.195v0.027h-0.03L64.411,456.769l-10.051,0.879
							c-0.031,0-0.031,0-0.059,0c-7.78,0.541-27.397-27-27.397-32.452H425.109z"/>
						<path fill="#BCBEC0" stroke="#A7A9AC" stroke-miterlimit="10" d="M425.109,425.165v0.03H26.905
							c0-5.45,19.617-32.992,27.397-32.454c0.028,0,0.028,0,0.059,0l10.021,0.882l360.698,31.542H425.109z"/>
					</g>
					<g>
						<path fill="#BCBEC0" stroke="#A7A9AC" stroke-miterlimit="10" d="M823.484,425.195c0,5.452-19.62,32.993-27.399,32.452
							c-0.027,0-0.027,0-0.056,0l-10.054-0.879l-360.669-31.546h-0.028l-0.027-0.027H823.484z"/>
						<path fill="#BCBEC0" stroke="#A7A9AC" stroke-miterlimit="10" d="M823.484,425.195H425.251l0.027-0.03h0.028l360.697-31.542
							l10.026-0.882c0.028,0,0.028,0,0.056,0C803.864,392.203,823.484,419.745,823.484,425.195z"/>
					</g>
				</g>
				<g>
					<g>
						<path fill="#BCBEC0" stroke="#A7A9AC" stroke-miterlimit="10" d="M425.079,425.223h0.03l-0.086,0.057L91.781,566.731
							l-9.255,3.918c-0.027,0-0.027,0-0.058,0.027c-7.212,2.897-34.382-17.204-36.059-22.399L425.079,425.223z"/>
						<rect x="425.137" y="425.195" fill="#BCBEC0" stroke="#A7A9AC" stroke-miterlimit="10" width="0.028" height="0.027"/>
						<rect x="425.223" y="425.165" fill="#BCBEC0" stroke="#A7A9AC" stroke-miterlimit="10" width="0.028" height="0.03"/>
						<path fill="#BCBEC0" stroke="#A7A9AC" stroke-miterlimit="10" d="M72.247,506.683l352.833-81.46L46.408,548.277
							c-1.703-5.197,8.462-37.448,16.015-39.323c0.028-0.031,0.028-0.031,0.056-0.031L72.247,506.683z"/>
						<rect x="425.109" y="425.195" fill="#BCBEC0" stroke="#A7A9AC" stroke-miterlimit="10" width="0.028" height="0.027"/>
					</g>
					<g>
						<polygon fill="#BCBEC0" stroke="#A7A9AC" stroke-miterlimit="10" points="425.251,425.165 425.278,425.165 425.251,425.195 
													"/>
						<path fill="#BCBEC0" stroke="#A7A9AC" stroke-miterlimit="10" d="M787.966,341.438c-0.033,0.027-0.033,0.027-0.061,0.027
							l-9.737,2.244l-352.862,81.456l378.669-123.049C805.678,307.309,795.514,339.564,787.966,341.438z"/>
						<rect x="425.137" y="425.195" fill="#BCBEC0" stroke="#A7A9AC" stroke-miterlimit="10" width="0.028" height="0.027"/>
						<rect x="425.223" y="425.165" fill="#BCBEC0" stroke="#A7A9AC" stroke-miterlimit="10" width="0.028" height="0.03"/>
						<path fill="#BCBEC0" stroke="#A7A9AC" stroke-miterlimit="10" d="M803.976,302.116L425.306,425.165h-0.028l0.086-0.055
							l333.301-141.479l9.166-3.892c0.061,0,0.061,0,0.061-0.027C775.128,276.817,802.302,296.947,803.976,302.116z"/>
					</g>
				</g>
				<g>
					<g>
						<path fill="#BCBEC0" stroke="#A7A9AC" stroke-miterlimit="10" d="M425.137,425.223v0.029L151.915,662.784l-7.664,6.644
							c-0.031,0-0.031,0-0.031,0.027c-5.989,4.998-38.044-5.734-41.252-10.163l322.055-234.013l0.086-0.057H425.137z"/>
						<path fill="#BCBEC0" stroke="#A7A9AC" stroke-miterlimit="10" d="M114.75,611.735l310.274-186.456L102.968,659.292
							c-3.211-4.401-3.521-38.219,3.095-42.333c0.027-0.03,0.027-0.03,0.055-0.058L114.75,611.735z"/>
						<polygon fill="#BCBEC0" stroke="#A7A9AC" stroke-miterlimit="10" points="425.079,425.223 425.109,425.223 425.023,425.279 
													"/>
						<rect x="425.137" y="425.195" fill="#BCBEC0" stroke="#A7A9AC" stroke-miterlimit="10" width="0.028" height="0.027"/>
					</g>
					<g>
						<rect x="425.223" y="425.165" fill="#BCBEC0" stroke="#A7A9AC" stroke-miterlimit="10" width="0.028" height="0.03"/>
						<polygon fill="#BCBEC0" stroke="#A7A9AC" stroke-miterlimit="10" points="425.278,425.165 425.364,425.11 425.306,425.165 
													"/>
						<path fill="#BCBEC0" stroke="#A7A9AC" stroke-miterlimit="10" d="M744.323,233.434c-0.027,0.027-0.027,0.027-0.055,0.027
							l-8.546,5.141L425.364,425.11L747.419,191.1C750.629,195.5,750.939,229.316,744.323,233.434z"/>
						<path fill="#BCBEC0" stroke="#A7A9AC" stroke-miterlimit="10" d="M747.419,191.1L425.364,425.11l-0.086,0.055h-0.027v-0.027
							l273.306-237.587l7.582-6.589c0.027,0,0.027,0,0.027-0.027C712.155,175.938,744.213,186.671,747.419,191.1z"/>
					</g>
				</g>
				<g>
					<g>
						<path fill="#BCBEC0" stroke="#A7A9AC" stroke-miterlimit="10" d="M191.068,747.421l234.041-322.056L238.712,735.611
							l-5.224,8.687c-0.028,0-0.028,0-0.059,0.028C229.315,750.941,195.499,750.631,191.068,747.421z"/>
						<rect x="425.137" y="425.279" fill="#BCBEC0" stroke="#A7A9AC" stroke-miterlimit="10" width="0.028" height="0.03"/>
						<rect x="425.165" y="425.223" fill="#BCBEC0" stroke="#A7A9AC" stroke-miterlimit="10" width="0.027" height="0.029"/>
						<path fill="#BCBEC0" stroke="#A7A9AC" stroke-miterlimit="10" d="M187.633,698.474l237.504-273.194l-0.028,0.086
							L191.068,747.421c-4.4-3.208-15.133-35.264-10.134-41.253c0.028,0,0.028,0,0.028-0.027L187.633,698.474z"/>
						<rect x="425.137" y="425.252" fill="#BCBEC0" stroke="#A7A9AC" stroke-miterlimit="10" width="0.028" height="0.027"/>
					</g>
					<g>
						<rect x="425.223" y="425.138" fill="#BCBEC0" stroke="#A7A9AC" stroke-miterlimit="10" width="0.028" height="0.027"/>
						<path fill="#BCBEC0" stroke="#A7A9AC" stroke-miterlimit="10" d="M669.455,144.224c-0.027,0-0.027,0-0.027,0.027l-6.588,7.554
							L425.251,425.138L659.29,102.969C663.716,106.177,674.479,138.232,669.455,144.224z"/>
						<rect x="425.192" y="425.165" fill="#BCBEC0" stroke="#A7A9AC" stroke-miterlimit="10" width="0.031" height="0.03"/>
						<path fill="#BCBEC0" stroke="#A7A9AC" stroke-miterlimit="10" d="M659.29,102.969L425.251,425.138h-0.028v-0.056l0.055-0.059
							l186.482-310.356l5.141-8.546c0.027-0.027,0.027-0.027,0.027-0.058C621.071,99.448,654.888,99.761,659.29,102.969z"/>
					</g>
				</g>
				<g>
					<g>
						<path fill="#BCBEC0" stroke="#A7A9AC" stroke-miterlimit="10" d="M302.112,803.98L425.165,425.31l-81.429,352.776
							l-2.271,9.823c0,0.028,0,0.028-0.031,0.056C339.56,795.519,307.309,805.684,302.112,803.98z"/>
						<rect x="425.165" y="425.252" fill="#BCBEC0" stroke="#A7A9AC" stroke-miterlimit="10" width="0.027" height="0.027"/>
						<path fill="#BCBEC0" stroke="#A7A9AC" stroke-miterlimit="10" d="M425.137,425.279h0.028v0.03L302.112,803.98
							c-5.196-1.677-25.298-28.847-22.4-36.059c0.027-0.059,0.027-0.059,0.027-0.059l3.918-9.256h0.027l141.425-333.242l0.028-0.056
							V425.279z"/>
						<rect x="425.165" y="425.223" fill="#BCBEC0" stroke="#A7A9AC" stroke-miterlimit="10" width="0.027" height="0.029"/>
						<rect x="425.192" y="425.138" fill="#BCBEC0" stroke="#A7A9AC" stroke-miterlimit="10" width="0.031" height="0.027"/>
					</g>
					<g>
						<rect x="425.165" y="425.223" fill="#BCBEC0" stroke="#A7A9AC" stroke-miterlimit="10" width="0.027" height="0.029"/>
						<rect x="425.192" y="425.138" fill="#BCBEC0" stroke="#A7A9AC" stroke-miterlimit="10" width="0.031" height="0.027"/>
						<path fill="#BCBEC0" stroke="#A7A9AC" stroke-miterlimit="10" d="M570.675,82.47c-0.028,0.028-0.028,0.028-0.028,0.056
							l-3.858,9.114l-141.51,333.384l-0.055,0.087v-0.028L548.277,46.411C553.473,48.086,573.604,75.258,570.675,82.47z"/>
						<rect x="425.192" y="425.11" fill="#BCBEC0" stroke="#A7A9AC" stroke-miterlimit="10" width="0.031" height="0.027"/>
						<path fill="#BCBEC0" stroke="#A7A9AC" stroke-miterlimit="10" d="M548.277,46.411L425.223,425.082l81.458-352.918l2.24-9.682
							c0-0.027,0-0.027,0.028-0.059C510.823,54.873,543.081,44.709,548.277,46.411z"/>
					</g>
				</g>
			</g>
		</g>
		<radialGradient id="SVGID_4_" cx="425.1943" cy="425.1948" r="256.53" gradientUnits="userSpaceOnUse">
			<stop  offset="0.1882" style="stop-color:#FFFFFF"/>
			<stop  offset="0.9301" style="stop-color:#FFFFFF;stop-opacity:0"/>
		</radialGradient>
		<circle fill="url(#SVGID_4_)" cx="425.194" cy="425.193" r="256.531"/>
		<g>
			<polygon fill="#939598" points="425.185,508.397 633.394,508.397 425.185,285.045 216.974,508.397 			"/>
			<g opacity="0.8">
				<polygon fill="none" stroke="#58595B" stroke-miterlimit="10" points="453.334,315.233 397.063,315.233 425.198,285.053 				"/>
				<path fill="none" stroke="#58595B" stroke-miterlimit="10" d="M262,460.091h2.243v-2.412L262,460.091z M586.157,457.706v2.385
					h2.213L586.157,457.706z"/>
				<polygon fill="none" stroke="#58595B" stroke-miterlimit="10" points="586.157,457.706 586.157,460.091 521.765,460.091 
					521.765,435.957 565.884,435.957 				"/>
				<rect x="457.399" y="435.957" fill="none" stroke="#58595B" stroke-miterlimit="10" width="64.365" height="24.134"/>
				<polygon fill="none" stroke="#58595B" stroke-miterlimit="10" points="610.912,484.252 553.961,484.252 553.961,460.091 
					588.37,460.091 				"/>
				<rect x="489.563" y="460.091" fill="none" stroke="#58595B" stroke-miterlimit="10" width="64.398" height="24.161"/>
				<rect x="425.198" y="411.823" fill="none" stroke="#58595B" stroke-miterlimit="10" width="64.364" height="24.134"/>
				<rect x="425.198" y="460.091" fill="none" stroke="#58595B" stroke-miterlimit="10" width="64.364" height="24.161"/>
				<g>
					<rect x="393.001" y="484.252" fill="none" stroke="#58595B" stroke-miterlimit="10" width="64.398" height="24.134"/>
					<rect x="457.399" y="484.252" fill="none" stroke="#58595B" stroke-miterlimit="10" width="64.365" height="24.134"/>
					<rect x="521.765" y="484.252" fill="none" stroke="#58595B" stroke-miterlimit="10" width="64.393" height="24.134"/>
					<polygon fill="none" stroke="#58595B" stroke-miterlimit="10" points="633.399,508.386 586.157,508.386 586.157,484.252 
						610.912,484.252 618.354,492.232 					"/>
					<rect x="328.608" y="484.252" fill="none" stroke="#58595B" stroke-miterlimit="10" width="64.393" height="24.134"/>
					<rect x="264.243" y="484.252" fill="none" stroke="#58595B" stroke-miterlimit="10" width="64.366" height="24.134"/>
					<polygon fill="none" stroke="#58595B" stroke-miterlimit="10" points="264.243,484.252 264.243,508.386 216.968,508.386 
						232.046,492.205 239.485,484.252 					"/>
					<rect x="360.805" y="460.091" fill="none" stroke="#58595B" stroke-miterlimit="10" width="64.394" height="24.161"/>
					<rect x="296.411" y="460.091" fill="none" stroke="#58595B" stroke-miterlimit="10" width="64.394" height="24.161"/>
					<polygon fill="none" stroke="#58595B" stroke-miterlimit="10" points="296.411,460.091 296.411,484.252 239.485,484.252 
						262,460.091 					"/>
					<rect x="393.001" y="435.957" fill="none" stroke="#58595B" stroke-miterlimit="10" width="64.398" height="24.134"/>
					<polygon fill="none" stroke="#58595B" stroke-miterlimit="10" points="328.608,435.957 328.608,460.091 264.243,460.091 
						264.243,457.679 284.486,435.957 					"/>
					<polygon fill="none" stroke="#58595B" stroke-miterlimit="10" points="360.805,411.823 360.805,435.957 296.411,435.957 
						296.411,423.18 307,411.823 					"/>
					<rect x="393.001" y="387.662" fill="none" stroke="#58595B" stroke-miterlimit="10" width="64.398" height="24.161"/>
					<polygon fill="none" stroke="#58595B" stroke-miterlimit="10" points="475.82,339.367 425.198,339.367 425.198,315.233 
						453.334,315.233 457.399,319.575 					"/>
					<polygon fill="none" stroke="#58595B" stroke-miterlimit="10" points="553.961,423.18 553.961,435.957 489.563,435.957 
						489.563,411.823 543.37,411.823 					"/>
					<polygon fill="none" stroke="#58595B" stroke-miterlimit="10" points="543.37,411.823 521.765,411.823 521.765,388.626 					
						"/>
					<polygon fill="none" stroke="#58595B" stroke-miterlimit="10" points="520.854,387.662 489.563,387.662 489.563,363.528 
						498.368,363.528 					"/>
					<polygon fill="none" stroke="#58595B" stroke-miterlimit="10" points="498.368,363.528 457.399,363.528 457.399,339.367 
						475.82,339.367 489.563,354.102 					"/>
					<polygon fill="none" stroke="#58595B" stroke-miterlimit="10" points="425.198,315.233 425.198,339.367 374.546,339.367 
						393.001,319.575 397.063,315.233 					"/>
					<rect x="393.001" y="339.367" fill="none" stroke="#58595B" stroke-miterlimit="10" width="64.398" height="24.161"/>
					<rect x="360.805" y="363.528" fill="none" stroke="#58595B" stroke-miterlimit="10" width="64.394" height="24.134"/>
					<polygon fill="none" stroke="#58595B" stroke-miterlimit="10" points="328.608,388.654 328.608,411.823 307,411.823 					"/>
					<polygon fill="none" stroke="#58595B" stroke-miterlimit="10" points="360.805,363.528 360.805,387.662 329.518,387.662 
						352.032,363.528 					"/>
					<polygon fill="none" stroke="#58595B" stroke-miterlimit="10" points="393.001,339.367 393.001,363.528 352.032,363.528 
						360.805,354.132 374.546,339.367 					"/>
				</g>
				<g>
					<polygon fill="none" stroke="#58595B" stroke-miterlimit="10" points="296.411,423.18 296.411,435.957 284.486,435.957 					
						"/>
					<rect x="360.805" y="411.823" fill="none" stroke="#58595B" stroke-miterlimit="10" width="64.394" height="24.134"/>
					<rect x="328.608" y="435.957" fill="none" stroke="#58595B" stroke-miterlimit="10" width="64.393" height="24.134"/>
					<polygon fill="none" stroke="#58595B" stroke-miterlimit="10" points="393.001,387.662 393.001,411.823 328.608,411.823 
						328.608,388.654 329.518,387.662 					"/>
					<rect x="425.198" y="363.528" fill="none" stroke="#58595B" stroke-miterlimit="10" width="64.364" height="24.134"/>
					<polygon fill="none" stroke="#58595B" stroke-miterlimit="10" points="521.765,388.626 521.765,411.823 457.399,411.823 
						457.399,387.662 520.854,387.662 					"/>
					<polygon fill="none" stroke="#58595B" stroke-miterlimit="10" points="565.884,435.957 553.961,435.957 553.961,423.18 					
						"/>
				</g>
			</g>
			<g>
				<path fill="#D1D3D4" stroke="#939598" stroke-miterlimit="10" d="M331.17,441.353c0-17.144,20.862-77.824,95.342-82.241
					c72.858-4.321,106.115,48.07,106.054,77.717c-0.041,20.564-30.439,47.216-101.453,47.216
					C404.483,484.044,331.17,474.278,331.17,441.353z"/>
				<path fill="none" stroke="#808285" stroke-miterlimit="10" d="M386.05,405.973c8.74-3.995,25.917-10.697,42.762-10.697
					c20.596,0,45.66,4.354,75.45,36.647l3.034,3.288l-2.541,3.68c-0.797,1.153-20.052,28.287-66.506,28.287"/>
				<path fill="#E6E7E8" stroke="#A7A9AC" stroke-miterlimit="10" d="M428.813,400.868c19.725,0,42.982,4.106,71.342,34.846
					c0,0-17.851,25.874-61.904,25.874s-61.713-15.938-79.314-11.793c-5.986,1.412-20.205,4.62-20.205-4.544
					c0-7.233,38.136-28.934,49.643-34.193C399.88,405.798,414.922,400.868,428.813,400.868z"/>
				<path fill="#1C75BC" d="M453.601,425.193c0,15.694-12.716,28.406-28.405,28.406c-15.69,0-28.403-12.712-28.403-28.406
					c0-6.428,2.138-12.366,5.748-17.121c0.94-1.254,1.993-2.426,3.128-3.503c7.544-2.218,15.513-3.707,23.145-3.707
					c3.893,0,7.924,0.158,12.094,0.651c0,0,0.012,0,0.012,0.012c1.459,0.965,2.817,2.068,4.076,3.283
					C450.295,409.977,453.601,417.196,453.601,425.193z"/>
				<g>
					<line fill="#F1F2F2" x1="436.892" y1="458.731" x2="436.881" y2="458.731"/>
					<path fill="#F1F2F2" d="M409.582,457.09c-5.592-0.817-12.79-2.7-12.79-2.7c-6.522-1.649-16.068-4.39-24.777-7.675
						c-7.545-2.851-10.77-4.566-11.679-8.373c-0.818-3.449,5.249-10.504,16.207-16.768c4.594-2.625,11.301-6.332,15.1-8.019
						c-1.262,3.649-1.955,7.564-1.955,11.638C389.688,439.201,397.807,451.313,409.582,457.09z"/>
					<path fill="#F1F2F2" d="M474.529,449.113c-6.334,7.791-29.951,9.33-37.638,9.618c13.858-4.835,23.813-18.02,23.813-33.538
						c0-0.386-0.012-0.761-0.023-1.135C476.786,431.445,480.911,441.253,474.529,449.113z"/>
					<line fill="#F1F2F2" x1="436.892" y1="458.731" x2="436.881" y2="458.731"/>
				</g>
				<radialGradient id="SVGID_5_" cx="425.1934" cy="425.1929" r="22.7239" gradientUnits="userSpaceOnUse">
					<stop  offset="0" style="stop-color:#2BB673"/>
					<stop  offset="0.3948" style="stop-color:#2BB474"/>
					<stop  offset="0.537" style="stop-color:#2BAF76"/>
					<stop  offset="0.6384" style="stop-color:#29A87B"/>
					<stop  offset="0.7204" style="stop-color:#26A080"/>
					<stop  offset="0.7907" style="stop-color:#229686"/>
					<stop  offset="0.8529" style="stop-color:#1F898C"/>
					<stop  offset="0.9091" style="stop-color:#1B7B91"/>
					<stop  offset="0.9591" style="stop-color:#196B93"/>
					<stop  offset="1" style="stop-color:#155C95"/>
				</radialGradient>
				<circle fill="url(#SVGID_5_)" cx="425.193" cy="425.193" r="22.723"/>
				<circle cx="425.197" cy="425.193" r="11.635"/>
				<radialGradient id="SVGID_6_" cx="424.7046" cy="425.1958" r="36.8865" gradientUnits="userSpaceOnUse">
					<stop  offset="0.1098" style="stop-color:#1C75BC"/>
					<stop  offset="0.4911" style="stop-color:#1D74B9"/>
					<stop  offset="0.6284" style="stop-color:#206EB2"/>
					<stop  offset="0.7264" style="stop-color:#2367A7"/>
					<stop  offset="0.8055" style="stop-color:#255C9A"/>
					<stop  offset="0.8733" style="stop-color:#274E8B"/>
					<stop  offset="0.9333" style="stop-color:#283D79"/>
					<stop  offset="0.9862" style="stop-color:#272967"/>
					<stop  offset="1" style="stop-color:#262262"/>
				</radialGradient>
				<path fill="url(#SVGID_6_)" d="M460.705,425.193c0,19.611-15.904,35.508-35.51,35.508c-19.609,0-35.507-15.896-35.507-35.508
					c0-5.925,1.461-11.526,4.034-16.439c3.768-1.527,7.792-2.97,11.945-4.185c-1.135,1.077-2.188,2.249-3.128,3.503
					c-3.61,4.755-5.748,10.693-5.748,17.121c0,15.694,12.713,28.406,28.403,28.406c15.689,0,28.405-12.712,28.405-28.406
					c0-7.997-3.306-15.217-8.606-20.385c-1.259-1.215-2.617-2.318-4.076-3.283c4.131,0.482,8.412,1.29,12.859,2.604
					C458.125,410.026,460.705,417.305,460.705,425.193z"/>
				<path fill="none" stroke="#A7A9AC" stroke-miterlimit="10" d="M428.813,400.868c19.725,0,42.982,4.106,71.342,34.846
					c0,0-17.851,25.874-61.904,25.874s-61.713-15.938-79.314-11.793c-5.986,1.412-20.205,4.62-20.205-4.544
					c0-7.233,38.136-28.934,49.643-34.193C399.88,405.798,414.922,400.868,428.813,400.868z"/>
			</g>
		</g>
		<g>
			<g>
				<path fill="none" stroke="#808285" stroke-width="1.5" stroke-miterlimit="10" d="M141.864,271.027
					c-2.002,0-3.932-0.261-5.792-0.781c-1.86-0.524-3.597-1.259-5.208-2.201s-3.08-2.077-4.4-3.399
					c-1.32-1.32-2.454-2.786-3.399-4.397c-0.943-1.614-1.675-3.35-2.198-5.207c-0.524-1.861-0.785-3.793-0.785-5.795
					c0-2.005,0.261-3.938,0.785-5.795c0.523-1.857,1.255-3.594,2.198-5.208c0.945-1.613,2.08-3.077,3.399-4.399
					c1.32-1.323,2.789-2.455,4.4-3.397c1.611-0.944,3.347-1.68,5.208-2.2c1.86-0.521,3.791-0.786,5.792-0.786h39.214v3.921h-33.546
					c-2.471,0-4.794,0.466-6.971,1.395c-2.179,0.933-4.076,2.202-5.689,3.813c-1.608,1.611-2.881,3.508-3.81,5.688
					c-0.932,2.179-1.395,4.502-1.395,6.971c0,2.468,0.462,4.791,1.395,6.97c0.929,2.18,2.202,4.073,3.81,5.685
					c1.614,1.614,3.51,2.883,5.689,3.815c2.177,0.926,4.5,1.392,6.971,1.392h33.546v3.92H141.864z"/>
				<path fill="none" stroke="#808285" stroke-width="1.5" stroke-miterlimit="10" d="M207.438,271.027
					c-2.007,0-3.937-0.261-5.795-0.781c-1.861-0.524-3.596-1.259-5.208-2.201c-1.614-0.942-3.078-2.077-4.4-3.399
					c-1.323-1.32-2.454-2.786-3.4-4.397c-0.945-1.614-1.677-3.35-2.198-5.207c-0.524-1.861-0.785-3.793-0.785-5.795
					c0-2.005,0.261-3.938,0.785-5.795c0.521-1.857,1.253-3.594,2.198-5.208c0.946-1.613,2.077-3.077,3.4-4.399
					c1.322-1.323,2.786-2.455,4.4-3.397c1.611-0.944,3.347-1.68,5.208-2.2c1.858-0.521,3.788-0.786,5.795-0.786h17.426
					c2.992,0,5.814,0.574,8.473,1.723c2.659,1.147,4.966,2.7,6.929,4.661c1.958,1.96,3.513,4.27,4.661,6.929
					c1.148,2.656,1.722,5.479,1.722,8.474c0,2.002-0.26,3.934-0.784,5.795c-0.524,1.857-1.256,3.593-2.199,5.207
					c-0.945,1.611-2.079,3.077-3.399,4.397c-1.323,1.322-2.79,2.457-4.403,3.399c-1.61,0.942-3.347,1.677-5.204,2.201
					c-1.86,0.521-3.79,0.781-5.795,0.781H207.438z M195.238,249.246c0,2.468,0.466,4.791,1.393,6.97
					c0.931,2.18,2.201,4.073,3.814,5.685c1.611,1.614,3.505,2.883,5.684,3.815c2.179,0.926,4.503,1.392,6.971,1.392h6.1
					c2.468,0,4.791-0.466,6.97-1.392c2.18-0.933,4.076-2.201,5.687-3.815c1.611-1.611,2.881-3.505,3.813-5.685
					c0.929-2.179,1.392-4.502,1.392-6.97c0-2.469-0.463-4.792-1.392-6.971c-0.932-2.18-2.202-4.076-3.813-5.688
					c-1.611-1.61-3.507-2.88-5.687-3.813c-2.179-0.929-4.502-1.395-6.97-1.395h-6.1c-2.468,0-4.792,0.466-6.971,1.395
					c-2.179,0.933-4.073,2.202-5.684,3.813c-1.614,1.611-2.883,3.508-3.814,5.688C195.704,244.454,195.238,246.777,195.238,249.246z
					"/>
				<path fill="none" stroke="#808285" stroke-width="1.5" stroke-miterlimit="10" d="M258.891,231.817v39.21h-4.793V227.46h13.07
					l43.135,39.212V227.46h4.793v43.567h-13.07L258.891,231.817z"/>
				<path fill="none" stroke="#808285" stroke-width="1.5" stroke-miterlimit="10" d="M321.935,271.027v-3.92h44.005
					c1.162,0,2.243-0.217,3.247-0.654c1.001-0.433,1.875-1.021,2.612-1.763c0.743-0.741,1.331-1.62,1.766-2.635
					c0.436-1.018,0.654-2.091,0.654-3.228c0-1.158-0.219-2.207-0.654-3.134c-0.436-0.931-1.023-1.729-1.766-2.398
					c-0.738-0.667-1.611-1.183-2.612-1.544c-1.003-0.366-2.085-0.546-3.247-0.546h-33.112c-1.511,0-2.925-0.35-4.248-1.045
					c-1.322-0.699-2.476-1.62-3.463-2.768c-0.987-1.147-1.766-2.457-2.332-3.921c-0.568-1.47-0.851-2.955-0.851-4.467
					c0-1.511,0.283-2.963,0.851-4.355c0.565-1.395,1.345-2.623,2.332-3.683c0.987-1.059,2.141-1.91,3.463-2.55
					c1.323-0.639,2.736-0.958,4.248-0.958h50.105v3.921h-44.005c-1.162,0-2.243,0.18-3.247,0.547
					c-1.001,0.36-1.875,0.876-2.612,1.547c-0.744,0.666-1.331,1.464-1.767,2.396c-0.435,0.928-0.654,1.974-0.654,3.135
					c0,1.134,0.219,2.207,0.654,3.225c0.436,1.015,1.023,1.897,1.767,2.635c0.737,0.742,1.61,1.331,2.612,1.766
					c1.003,0.436,2.085,0.652,3.247,0.652h33.112c1.511,0,2.925,0.321,4.247,0.958c1.323,0.642,2.477,1.489,3.464,2.552
					c0.987,1.06,1.766,2.284,2.331,3.683c0.569,1.391,0.852,2.845,0.852,4.353c0,1.514-0.283,3-0.852,4.47
					c-0.565,1.464-1.344,2.773-2.331,3.921c-0.987,1.147-2.141,2.068-3.464,2.768c-1.322,0.695-2.736,1.041-4.247,1.041H321.935z"/>
				<path fill="none" stroke="#808285" stroke-width="1.5" stroke-miterlimit="10" d="M389.73,227.46h50.106
					c1.51,0,2.924,0.319,4.248,0.958c1.32,0.64,2.473,1.491,3.461,2.55c0.987,1.06,1.764,2.288,2.328,3.683
					c0.571,1.393,0.854,2.845,0.854,4.355c0,1.512-0.282,2.997-0.854,4.467c-0.564,1.464-1.341,2.773-2.328,3.921
					c-0.988,1.147-2.141,2.068-3.461,2.768c-1.324,0.695-2.738,1.045-4.248,1.045h-41.392v19.821h-8.714V227.46z M433.736,247.283
					c1.159,0,2.24-0.217,3.244-0.652c1.004-0.435,1.875-1.023,2.613-1.766c0.742-0.737,1.329-1.62,1.762-2.635
					c0.438-1.018,0.655-2.091,0.655-3.225c0-1.161-0.217-2.207-0.655-3.135c-0.433-0.933-1.02-1.73-1.762-2.396
					c-0.738-0.671-1.609-1.187-2.613-1.547c-1.004-0.367-2.085-0.547-3.244-0.547h-35.292v15.902H433.736z"/>
				<path fill="none" stroke="#808285" stroke-width="1.5" stroke-miterlimit="10" d="M455.646,227.46h8.717v43.567h-8.717V227.46z"
					/>
				<path fill="none" stroke="#808285" stroke-width="1.5" stroke-miterlimit="10" d="M525.275,258.828
					c0-1.158-0.223-2.207-0.655-3.134c-0.438-0.931-1.026-1.729-1.763-2.398c-0.743-0.667-1.614-1.183-2.618-1.544
					c-1.003-0.366-2.085-0.546-3.243-0.546h-35.293v19.821h-8.716V227.46h50.108c1.508,0,2.922,0.319,4.247,0.958
					c1.32,0.64,2.474,1.491,3.461,2.55c0.986,1.06,1.769,2.288,2.334,3.683c0.566,1.393,0.849,2.845,0.849,4.355
					c0,1.978-0.46,3.871-1.375,5.688c-0.914,1.813-2.141,3.305-3.676,4.464c1.535,1.075,2.762,2.468,3.676,4.185
					c0.915,1.713,1.375,3.543,1.375,5.486v12.199h-8.711V258.828z M517.344,247.283c1.104-0.028,2.142-0.267,3.111-0.716
					c0.977-0.452,1.819-1.048,2.529-1.789c0.71-0.739,1.27-1.604,1.681-2.592c0.404-0.987,0.61-2.047,0.61-3.181
					c0-1.161-0.223-2.207-0.655-3.135c-0.438-0.933-1.026-1.73-1.763-2.396c-0.743-0.671-1.614-1.187-2.618-1.547
					c-1.003-0.367-2.085-0.547-3.243-0.547h-35.293v15.902H517.344z"/>
				<path fill="none" stroke="#808285" stroke-width="1.5" stroke-miterlimit="10" d="M565.007,227.46h9.583l26.141,43.567h-9.581
					l-9.15-15.25h-28.188l-8.846,15.25h-5.229L565.007,227.46z M556.074,251.857h23.572l-11.982-19.953L556.074,251.857z"/>
				<path fill="none" stroke="#808285" stroke-width="1.5" stroke-miterlimit="10" d="M627.443,271.027
					c-2.008,0-3.937-0.261-5.795-0.781c-1.863-0.524-3.594-1.259-5.208-2.201c-1.613-0.942-3.077-2.077-4.402-3.399
					c-1.32-1.32-2.45-2.786-3.4-4.397c-0.942-1.614-1.674-3.35-2.194-5.207c-0.527-1.861-0.788-3.793-0.788-5.795
					c0-2.005,0.261-3.938,0.788-5.795c0.521-1.857,1.252-3.594,2.194-5.208c0.95-1.613,2.08-3.077,3.4-4.399
					c1.325-1.323,2.789-2.455,4.402-3.397c1.614-0.944,3.345-1.68,5.208-2.2c1.858-0.521,3.787-0.786,5.795-0.786h39.211v3.921
					h-33.549c-2.468,0-4.792,0.466-6.972,1.395c-2.179,0.933-4.075,2.202-5.684,3.813c-1.613,1.611-2.884,3.508-3.815,5.688
					c-0.925,2.179-1.392,4.502-1.392,6.971c0,2.468,0.467,4.791,1.392,6.97c0.932,2.18,2.202,4.073,3.815,5.685
					c1.608,1.614,3.505,2.883,5.684,3.815c2.18,0.926,4.504,1.392,6.972,1.392h33.549v3.92H627.443z"/>
				<path fill="none" stroke="#808285" stroke-width="1.5" stroke-miterlimit="10" d="M695.02,250.422l-25.709-22.962h12.2
					l19.342,17.3l20.74-17.3h8.717l-25.708,21.437v22.131h-9.582V250.422z"/>
			</g>
			<g>
				<path fill="none" stroke="#808285" stroke-width="1.5" d="M356.857,588.969h-4.794v-35.552l-21.347,35.552h-9.585l-21.35-35.552
					v35.552h-4.792v-43.57h9.586l21.347,35.596l21.35-35.596h9.585V588.969z"/>
				<path fill="none" stroke="#808285" stroke-width="1.5" d="M388.138,545.398h9.586l26.141,43.57h-9.582l-9.15-15.25h-28.19
					l-8.845,15.25h-5.227L388.138,545.398z M379.207,569.798h23.571l-11.981-19.958L379.207,569.798z"/>
				<path fill="none" stroke="#808285" stroke-width="1.5" d="M427.829,545.398h60.995v3.92l-48.794,35.729h48.794v3.921h-60.995
					v-3.921l48.802-35.729h-48.802V545.398z"/>
				<path fill="none" stroke="#808285" stroke-width="1.5" d="M516.187,588.969c-2.003,0-3.933-0.261-5.796-0.788
					c-1.857-0.521-3.594-1.253-5.201-2.195c-1.614-0.943-3.084-2.079-4.403-3.399c-1.319-1.319-2.456-2.789-3.399-4.397
					c-0.943-1.613-1.674-3.35-2.201-5.213c-0.521-1.857-0.782-3.787-0.782-5.795c0-2.002,0.261-3.932,0.782-5.795
					c0.527-1.858,1.258-3.587,2.201-5.201s2.08-3.078,3.399-4.403c1.319-1.319,2.789-2.451,4.403-3.394
					c1.607-0.948,3.344-1.681,5.201-2.207c1.863-0.521,3.793-0.782,5.796-0.782h39.216v3.92h-33.549
					c-2.324,0-4.504,0.405-6.538,1.221c-2.029,0.815-3.839,1.94-5.423,3.378c-1.58,1.44-2.885,3.127-3.899,5.057
					c-1.015,1.931-1.657,4.015-1.919,6.249h51.328v3.921h-51.328c0.262,2.234,0.904,4.326,1.919,6.272
					c1.015,1.945,2.319,3.632,3.899,5.057c1.584,1.42,3.394,2.54,5.423,3.355c2.034,0.811,4.214,1.22,6.538,1.22h33.549v3.921
					H516.187z"/>
			</g>
		</g>
		<g>
			<g>
				<path fill="#FFFFFF" d="M141.864,271.027c-2.002,0-3.932-0.261-5.792-0.781c-1.86-0.524-3.597-1.259-5.208-2.201
					s-3.08-2.077-4.4-3.399c-1.32-1.32-2.454-2.786-3.399-4.397c-0.943-1.614-1.675-3.35-2.198-5.207
					c-0.524-1.861-0.785-3.793-0.785-5.795c0-2.005,0.261-3.938,0.785-5.795c0.523-1.857,1.255-3.594,2.198-5.208
					c0.945-1.613,2.08-3.077,3.399-4.399c1.32-1.323,2.789-2.455,4.4-3.397c1.611-0.944,3.347-1.68,5.208-2.2
					c1.86-0.521,3.791-0.786,5.792-0.786h39.214v3.921h-33.546c-2.471,0-4.794,0.466-6.971,1.395
					c-2.179,0.933-4.076,2.202-5.689,3.813c-1.608,1.611-2.881,3.508-3.81,5.688c-0.932,2.179-1.395,4.502-1.395,6.971
					c0,2.468,0.462,4.791,1.395,6.97c0.929,2.18,2.202,4.073,3.81,5.685c1.614,1.614,3.51,2.883,5.689,3.815
					c2.177,0.926,4.5,1.392,6.971,1.392h33.546v3.92H141.864z"/>
				<path fill="#FFFFFF" d="M207.438,271.027c-2.007,0-3.937-0.261-5.795-0.781c-1.861-0.524-3.596-1.259-5.208-2.201
					c-1.614-0.942-3.078-2.077-4.4-3.399c-1.323-1.32-2.454-2.786-3.4-4.397c-0.945-1.614-1.677-3.35-2.198-5.207
					c-0.524-1.861-0.785-3.793-0.785-5.795c0-2.005,0.261-3.938,0.785-5.795c0.521-1.857,1.253-3.594,2.198-5.208
					c0.946-1.613,2.077-3.077,3.4-4.399c1.322-1.323,2.786-2.455,4.4-3.397c1.611-0.944,3.347-1.68,5.208-2.2
					c1.858-0.521,3.788-0.786,5.795-0.786h17.426c2.992,0,5.814,0.574,8.473,1.723c2.659,1.147,4.966,2.7,6.929,4.661
					c1.958,1.96,3.513,4.27,4.661,6.929c1.148,2.656,1.722,5.479,1.722,8.474c0,2.002-0.26,3.934-0.784,5.795
					c-0.524,1.857-1.256,3.593-2.199,5.207c-0.945,1.611-2.079,3.077-3.399,4.397c-1.323,1.322-2.79,2.457-4.403,3.399
					c-1.61,0.942-3.347,1.677-5.204,2.201c-1.86,0.521-3.79,0.781-5.795,0.781H207.438z M195.238,249.246
					c0,2.468,0.466,4.791,1.393,6.97c0.931,2.18,2.201,4.073,3.814,5.685c1.611,1.614,3.505,2.883,5.684,3.815
					c2.179,0.926,4.503,1.392,6.971,1.392h6.1c2.468,0,4.791-0.466,6.97-1.392c2.18-0.933,4.076-2.201,5.687-3.815
					c1.611-1.611,2.881-3.505,3.813-5.685c0.929-2.179,1.392-4.502,1.392-6.97c0-2.469-0.463-4.792-1.392-6.971
					c-0.932-2.18-2.202-4.076-3.813-5.688c-1.611-1.61-3.507-2.88-5.687-3.813c-2.179-0.929-4.502-1.395-6.97-1.395h-6.1
					c-2.468,0-4.792,0.466-6.971,1.395c-2.179,0.933-4.073,2.202-5.684,3.813c-1.614,1.611-2.883,3.508-3.814,5.688
					C195.704,244.454,195.238,246.777,195.238,249.246z"/>
				<path fill="#FFFFFF" d="M258.891,231.817v39.21h-4.793V227.46h13.07l43.135,39.212V227.46h4.793v43.567h-13.07L258.891,231.817z
					"/>
				<path fill="#FFFFFF" d="M321.935,271.027v-3.92h44.005c1.162,0,2.243-0.217,3.247-0.654c1.001-0.433,1.875-1.021,2.612-1.763
					c0.743-0.741,1.331-1.62,1.766-2.635c0.436-1.018,0.654-2.091,0.654-3.228c0-1.158-0.219-2.207-0.654-3.134
					c-0.436-0.931-1.023-1.729-1.766-2.398c-0.738-0.667-1.611-1.183-2.612-1.544c-1.003-0.366-2.085-0.546-3.247-0.546h-33.112
					c-1.511,0-2.925-0.35-4.248-1.045c-1.322-0.699-2.476-1.62-3.463-2.768c-0.987-1.147-1.766-2.457-2.332-3.921
					c-0.568-1.47-0.851-2.955-0.851-4.467c0-1.511,0.283-2.963,0.851-4.355c0.565-1.395,1.345-2.623,2.332-3.683
					c0.987-1.059,2.141-1.91,3.463-2.55c1.323-0.639,2.736-0.958,4.248-0.958h50.105v3.921h-44.005c-1.162,0-2.243,0.18-3.247,0.547
					c-1.001,0.36-1.875,0.876-2.612,1.547c-0.744,0.666-1.331,1.464-1.767,2.396c-0.435,0.928-0.654,1.974-0.654,3.135
					c0,1.134,0.219,2.207,0.654,3.225c0.436,1.015,1.023,1.897,1.767,2.635c0.737,0.742,1.61,1.331,2.612,1.766
					c1.003,0.436,2.085,0.652,3.247,0.652h33.112c1.511,0,2.925,0.321,4.247,0.958c1.323,0.642,2.477,1.489,3.464,2.552
					c0.987,1.06,1.766,2.284,2.331,3.683c0.569,1.391,0.852,2.845,0.852,4.353c0,1.514-0.283,3-0.852,4.47
					c-0.565,1.464-1.344,2.773-2.331,3.921c-0.987,1.147-2.141,2.068-3.464,2.768c-1.322,0.695-2.736,1.041-4.247,1.041H321.935z"/>
				<path fill="#FFFFFF" d="M389.73,227.46h50.106c1.51,0,2.924,0.319,4.248,0.958c1.32,0.64,2.473,1.491,3.461,2.55
					c0.987,1.06,1.764,2.288,2.328,3.683c0.571,1.393,0.854,2.845,0.854,4.355c0,1.512-0.282,2.997-0.854,4.467
					c-0.564,1.464-1.341,2.773-2.328,3.921c-0.988,1.147-2.141,2.068-3.461,2.768c-1.324,0.695-2.738,1.045-4.248,1.045h-41.392
					v19.821h-8.714V227.46z M433.736,247.283c1.159,0,2.24-0.217,3.244-0.652c1.004-0.435,1.875-1.023,2.613-1.766
					c0.742-0.737,1.329-1.62,1.762-2.635c0.438-1.018,0.655-2.091,0.655-3.225c0-1.161-0.217-2.207-0.655-3.135
					c-0.433-0.933-1.02-1.73-1.762-2.396c-0.738-0.671-1.609-1.187-2.613-1.547c-1.004-0.367-2.085-0.547-3.244-0.547h-35.292
					v15.902H433.736z"/>
				<path fill="#FFFFFF" d="M455.646,227.46h8.717v43.567h-8.717V227.46z"/>
				<path fill="#FFFFFF" d="M525.275,258.828c0-1.158-0.223-2.207-0.655-3.134c-0.438-0.931-1.026-1.729-1.763-2.398
					c-0.743-0.667-1.614-1.183-2.618-1.544c-1.003-0.366-2.085-0.546-3.243-0.546h-35.293v19.821h-8.716V227.46h50.108
					c1.508,0,2.922,0.319,4.247,0.958c1.32,0.64,2.474,1.491,3.461,2.55c0.986,1.06,1.769,2.288,2.334,3.683
					c0.566,1.393,0.849,2.845,0.849,4.355c0,1.978-0.46,3.871-1.375,5.688c-0.914,1.813-2.141,3.305-3.676,4.464
					c1.535,1.075,2.762,2.468,3.676,4.185c0.915,1.713,1.375,3.543,1.375,5.486v12.199h-8.711V258.828z M517.344,247.283
					c1.104-0.028,2.142-0.267,3.111-0.716c0.977-0.452,1.819-1.048,2.529-1.789c0.71-0.739,1.27-1.604,1.681-2.592
					c0.404-0.987,0.61-2.047,0.61-3.181c0-1.161-0.223-2.207-0.655-3.135c-0.438-0.933-1.026-1.73-1.763-2.396
					c-0.743-0.671-1.614-1.187-2.618-1.547c-1.003-0.367-2.085-0.547-3.243-0.547h-35.293v15.902H517.344z"/>
				<path fill="#FFFFFF" d="M565.007,227.46h9.583l26.141,43.567h-9.581l-9.15-15.25h-28.188l-8.846,15.25h-5.229L565.007,227.46z
					 M556.074,251.857h23.572l-11.982-19.953L556.074,251.857z"/>
				<path fill="#FFFFFF" d="M627.443,271.027c-2.008,0-3.937-0.261-5.795-0.781c-1.863-0.524-3.594-1.259-5.208-2.201
					c-1.613-0.942-3.077-2.077-4.402-3.399c-1.32-1.32-2.45-2.786-3.4-4.397c-0.942-1.614-1.674-3.35-2.194-5.207
					c-0.527-1.861-0.788-3.793-0.788-5.795c0-2.005,0.261-3.938,0.788-5.795c0.521-1.857,1.252-3.594,2.194-5.208
					c0.95-1.613,2.08-3.077,3.4-4.399c1.325-1.323,2.789-2.455,4.402-3.397c1.614-0.944,3.345-1.68,5.208-2.2
					c1.858-0.521,3.787-0.786,5.795-0.786h39.211v3.921h-33.549c-2.468,0-4.792,0.466-6.972,1.395
					c-2.179,0.933-4.075,2.202-5.684,3.813c-1.613,1.611-2.884,3.508-3.815,5.688c-0.925,2.179-1.392,4.502-1.392,6.971
					c0,2.468,0.467,4.791,1.392,6.97c0.932,2.18,2.202,4.073,3.815,5.685c1.608,1.614,3.505,2.883,5.684,3.815
					c2.18,0.926,4.504,1.392,6.972,1.392h33.549v3.92H627.443z"/>
				<path fill="#FFFFFF" d="M695.02,250.422l-25.709-22.962h12.2l19.342,17.3l20.74-17.3h8.717l-25.708,21.437v22.131h-9.582
					V250.422z"/>
			</g>
			<g>
				<path fill="#FFFFFF" d="M356.857,588.969h-4.794v-35.552l-21.347,35.552h-9.585l-21.35-35.552v35.552h-4.792v-43.57h9.586
					l21.347,35.596l21.35-35.596h9.585V588.969z"/>
				<path fill="#FFFFFF" d="M388.138,545.398h9.586l26.141,43.57h-9.582l-9.15-15.25h-28.19l-8.845,15.25h-5.227L388.138,545.398z
					 M379.207,569.798h23.571l-11.981-19.958L379.207,569.798z"/>
				<path fill="#FFFFFF" d="M427.829,545.398h60.995v3.92l-48.794,35.729h48.794v3.921h-60.995v-3.921l48.802-35.729h-48.802
					V545.398z"/>
				<path fill="#FFFFFF" d="M516.187,588.969c-2.003,0-3.933-0.261-5.796-0.788c-1.857-0.521-3.594-1.253-5.201-2.195
					c-1.614-0.943-3.084-2.079-4.403-3.399c-1.319-1.319-2.456-2.789-3.399-4.397c-0.943-1.613-1.674-3.35-2.201-5.213
					c-0.521-1.857-0.782-3.787-0.782-5.795c0-2.002,0.261-3.932,0.782-5.795c0.527-1.858,1.258-3.587,2.201-5.201
					s2.08-3.078,3.399-4.403c1.319-1.319,2.789-2.451,4.403-3.394c1.607-0.948,3.344-1.681,5.201-2.207
					c1.863-0.521,3.793-0.782,5.796-0.782h39.216v3.92h-33.549c-2.324,0-4.504,0.405-6.538,1.221
					c-2.029,0.815-3.839,1.94-5.423,3.378c-1.58,1.44-2.885,3.127-3.899,5.057c-1.015,1.931-1.657,4.015-1.919,6.249h51.328v3.921
					h-51.328c0.262,2.234,0.904,4.326,1.919,6.272c1.015,1.945,2.319,3.632,3.899,5.057c1.584,1.42,3.394,2.54,5.423,3.355
					c2.034,0.811,4.214,1.22,6.538,1.22h33.549v3.921H516.187z"/>
			</g>
		</g>
	</g>
</g>
</svg>
