<?xml version="1.0" encoding="UTF-8"?><svg id="Layer_1" xmlns="http://www.w3.org/2000/svg" xmlns:xlink="http://www.w3.org/1999/xlink" viewBox="0 0 566.93 425.2"><defs><radialGradient id="radial-gradient" cx="240.37" cy="191.8" fx="240.37" fy="191.8" r="39.99" gradientTransform="translate(0 425.89) scale(1 -1)" gradientUnits="userSpaceOnUse"><stop offset=".35" stop-color="#c2c2c2"/><stop offset=".55" stop-color="#cecece"/><stop offset="1" stop-color="#e5e5e5"/></radialGradient><radialGradient id="radial-gradient-2" cx="295.22" cy="174.76" fx="295.22" fy="174.76" r="38.95" gradientTransform="translate(0 425.89) scale(1 -1)" gradientUnits="userSpaceOnUse"><stop offset=".35" stop-color="#c2c2c2"/><stop offset=".55" stop-color="#cecece"/><stop offset="1" stop-color="#e5e5e5"/></radialGradient><radialGradient id="radial-gradient-3" cx="304.24" cy="176.82" fx="304.24" fy="176.82" r="39.45" gradientTransform="translate(0 425.89) scale(1 -1)" gradientUnits="userSpaceOnUse"><stop offset=".35" stop-color="#c2c2c2"/><stop offset=".55" stop-color="#cecece"/><stop offset="1" stop-color="#e5e5e5"/></radialGradient><radialGradient id="radial-gradient-4" cx="312.62" cy="180.46" fx="312.62" fy="180.46" r="39.81" gradientTransform="translate(0 425.89) scale(1 -1)" gradientUnits="userSpaceOnUse"><stop offset=".35" stop-color="#c2c2c2"/><stop offset=".55" stop-color="#cecece"/><stop offset="1" stop-color="#e5e5e5"/></radialGradient><radialGradient id="radial-gradient-5" cx="320.11" cy="185.56" fx="320.11" fy="185.56" r="39.99" gradientTransform="translate(0 425.89) scale(1 -1)" gradientUnits="userSpaceOnUse"><stop offset=".35" stop-color="#c2c2c2"/><stop offset=".55" stop-color="#cecece"/><stop offset="1" stop-color="#e5e5e5"/></radialGradient><radialGradient id="radial-gradient-6" cx="326.48" cy="191.97" fx="326.48" fy="191.97" r="39.99" gradientTransform="translate(0 425.89) scale(1 -1)" gradientUnits="userSpaceOnUse"><stop offset=".35" stop-color="#c2c2c2"/><stop offset=".55" stop-color="#cecece"/><stop offset="1" stop-color="#e5e5e5"/></radialGradient><radialGradient id="radial-gradient-7" cx="331.56" cy="199.49" fx="331.56" fy="199.49" r="39.8" gradientTransform="translate(0 425.89) scale(1 -1)" gradientUnits="userSpaceOnUse"><stop offset=".35" stop-color="#c2c2c2"/><stop offset=".55" stop-color="#cecece"/><stop offset="1" stop-color="#e5e5e5"/></radialGradient><radialGradient id="radial-gradient-8" cx="262.69" cy="176.75" fx="262.69" fy="176.75" r="39.44" gradientTransform="translate(0 425.89) scale(1 -1)" gradientUnits="userSpaceOnUse"><stop offset=".35" stop-color="#c2c2c2"/><stop offset=".55" stop-color="#cecece"/><stop offset="1" stop-color="#e5e5e5"/></radialGradient><radialGradient id="radial-gradient-9" cx="254.29" cy="180.35" fx="254.29" fy="180.35" r="39.8" gradientTransform="translate(0 425.89) scale(1 -1)" gradientUnits="userSpaceOnUse"><stop offset=".35" stop-color="#c2c2c2"/><stop offset=".55" stop-color="#cecece"/><stop offset="1" stop-color="#e5e5e5"/></radialGradient><radialGradient id="radial-gradient-10" cx="246.78" cy="185.42" fx="246.78" fy="185.42" r="39.99" gradientTransform="translate(0 425.89) scale(1 -1)" gradientUnits="userSpaceOnUse"><stop offset=".35" stop-color="#c2c2c2"/><stop offset=".55" stop-color="#cecece"/><stop offset="1" stop-color="#e5e5e5"/></radialGradient><radialGradient id="radial-gradient-11" cx="235.26" cy="199.29" fx="235.26" fy="199.29" r="39.81" gradientTransform="translate(0 425.89) scale(1 -1)" gradientUnits="userSpaceOnUse"><stop offset=".35" stop-color="#c2c2c2"/><stop offset=".55" stop-color="#cecece"/><stop offset="1" stop-color="#e5e5e5"/></radialGradient><radialGradient id="radial-gradient-12" cx="283.59" cy="174.28" fx="283.59" fy="174.28" r="38.52" gradientTransform="translate(0 425.89) scale(1 -1)" gradientUnits="userSpaceOnUse"><stop offset=".35" stop-color="#c2c2c2"/><stop offset=".55" stop-color="#cecece"/><stop offset="1" stop-color="#e5e5e5"/></radialGradient><radialGradient id="radial-gradient-13" cx="271.72" cy="174.73" fx="271.72" fy="174.73" r="38.94" gradientTransform="translate(0 425.89) scale(1 -1)" gradientUnits="userSpaceOnUse"><stop offset=".35" stop-color="#c2c2c2"/><stop offset=".55" stop-color="#cecece"/><stop offset="1" stop-color="#e5e5e5"/></radialGradient><linearGradient id="linear-gradient" x1="283.46" y1="174.9" x2="283.46" y2="88.56" gradientTransform="translate(0 425.89) scale(1 -1)" gradientUnits="userSpaceOnUse"><stop offset=".21" stop-color="#ccc"/><stop offset=".66" stop-color="#a6a6a6"/><stop offset="1" stop-color="#8f8f8f"/></linearGradient><linearGradient id="linear-gradient-2" x1="283.46" y1="195.29" x2="283.46" y2="85.1" gradientTransform="translate(0 425.89) scale(1 -1)" gradientUnits="userSpaceOnUse"><stop offset="0" stop-color="#a8a8a8"/><stop offset="1" stop-color="#1f1f1f"/></linearGradient><linearGradient id="linear-gradient-3" x1="244.01" y1="155.74" x2="322.91" y2="155.74" gradientTransform="translate(0 425.89) scale(1 -1)" gradientUnits="userSpaceOnUse"><stop offset="0" stop-color="#858585"/><stop offset="1" stop-color="#000"/></linearGradient><linearGradient id="linear-gradient-4" x1="66.82" y1="367.8" x2="66.82" y2="285.92" gradientTransform="translate(0 425.89) scale(1 -1)" gradientUnits="userSpaceOnUse"><stop offset="0" stop-color="#a8a8a8"/><stop offset="1" stop-color="#1f1f1f"/></linearGradient><linearGradient id="linear-gradient-5" x1="109.19" y1="367.8" x2="109.19" y2="285.92" gradientTransform="translate(0 425.89) scale(1 -1)" gradientUnits="userSpaceOnUse"><stop offset="0" stop-color="#a8a8a8"/><stop offset="1" stop-color="#1f1f1f"/></linearGradient><linearGradient id="linear-gradient-6" x1="152.66" y1="367.8" x2="152.66" y2="285.92" gradientTransform="translate(0 425.89) scale(1 -1)" gradientUnits="userSpaceOnUse"><stop offset="0" stop-color="#a8a8a8"/><stop offset="1" stop-color="#1f1f1f"/></linearGradient><linearGradient id="linear-gradient-7" x1="193.05" y1="367.8" x2="193.05" y2="285.92" gradientTransform="translate(0 425.89) scale(1 -1)" gradientUnits="userSpaceOnUse"><stop offset="0" stop-color="#a8a8a8"/><stop offset="1" stop-color="#1f1f1f"/></linearGradient><linearGradient id="linear-gradient-8" x1="234.64" y1="367.8" x2="234.64" y2="285.92" gradientTransform="translate(0 425.89) scale(1 -1)" gradientUnits="userSpaceOnUse"><stop offset="0" stop-color="#a8a8a8"/><stop offset="1" stop-color="#1f1f1f"/></linearGradient><linearGradient id="linear-gradient-9" x1="269.47" y1="367.8" x2="269.47" y2="285.92" gradientTransform="translate(0 425.89) scale(1 -1)" gradientUnits="userSpaceOnUse"><stop offset="0" stop-color="#a8a8a8"/><stop offset="1" stop-color="#1f1f1f"/></linearGradient><linearGradient id="linear-gradient-10" x1="303.38" y1="367.8" x2="303.38" y2="285.92" gradientTransform="translate(0 425.89) scale(1 -1)" gradientUnits="userSpaceOnUse"><stop offset="0" stop-color="#a8a8a8"/><stop offset="1" stop-color="#1f1f1f"/></linearGradient><linearGradient id="linear-gradient-11" x1="346.8" y1="367.8" x2="346.8" y2="285.92" gradientTransform="translate(0 425.89) scale(1 -1)" gradientUnits="userSpaceOnUse"><stop offset="0" stop-color="#a8a8a8"/><stop offset="1" stop-color="#1f1f1f"/></linearGradient><linearGradient id="linear-gradient-12" x1="395.72" y1="367.8" x2="395.72" y2="285.92" gradientTransform="translate(0 425.89) scale(1 -1)" gradientUnits="userSpaceOnUse"><stop offset="0" stop-color="#a8a8a8"/><stop offset="1" stop-color="#1f1f1f"/></linearGradient><linearGradient id="linear-gradient-13" x1="447.27" y1="367.8" x2="447.27" y2="285.92" gradientTransform="translate(0 425.89) scale(1 -1)" gradientUnits="userSpaceOnUse"><stop offset="0" stop-color="#a8a8a8"/><stop offset="1" stop-color="#1f1f1f"/></linearGradient><linearGradient id="linear-gradient-14" x1="474.1" y1="367.8" x2="474.1" y2="285.92" gradientTransform="translate(0 425.89) scale(1 -1)" gradientUnits="userSpaceOnUse"><stop offset="0" stop-color="#a8a8a8"/><stop offset="1" stop-color="#1f1f1f"/></linearGradient><linearGradient id="linear-gradient-15" x1="500.11" y1="367.8" x2="500.11" y2="285.92" gradientTransform="translate(0 425.89) scale(1 -1)" gradientUnits="userSpaceOnUse"><stop offset="0" stop-color="#a8a8a8"/><stop offset="1" stop-color="#1f1f1f"/></linearGradient><linearGradient id="linear-gradient-16" x1="67.43" y1="367.8" x2="67.43" y2="285.92" gradientTransform="translate(0 425.89) scale(1 -1)" gradientUnits="userSpaceOnUse"><stop offset="0" stop-color="#a8a8a8"/><stop offset="1" stop-color="#1f1f1f"/></linearGradient><linearGradient id="linear-gradient-17" x1="110.6" y1="367.8" x2="110.6" y2="285.92" gradientTransform="translate(0 425.89) scale(1 -1)" gradientUnits="userSpaceOnUse"><stop offset="0" stop-color="#a8a8a8"/><stop offset="1" stop-color="#1f1f1f"/></linearGradient><linearGradient id="linear-gradient-18" x1="145.59" y1="367.8" x2="145.59" y2="285.92" gradientTransform="translate(0 425.89) scale(1 -1)" gradientUnits="userSpaceOnUse"><stop offset="0" stop-color="#a8a8a8"/><stop offset="1" stop-color="#1f1f1f"/></linearGradient><linearGradient id="linear-gradient-19" x1="179.81" y1="367.8" x2="179.81" y2="285.92" gradientTransform="translate(0 425.89) scale(1 -1)" gradientUnits="userSpaceOnUse"><stop offset="0" stop-color="#a8a8a8"/><stop offset="1" stop-color="#1f1f1f"/></linearGradient><linearGradient id="linear-gradient-20" x1="206.15" y1="367.8" x2="206.15" y2="285.92" gradientTransform="translate(0 425.89) scale(1 -1)" gradientUnits="userSpaceOnUse"><stop offset="0" stop-color="#a8a8a8"/><stop offset="1" stop-color="#1f1f1f"/></linearGradient><linearGradient id="linear-gradient-21" x1="233.12" y1="367.8" x2="233.12" y2="285.92" gradientTransform="translate(0 425.89) scale(1 -1)" gradientUnits="userSpaceOnUse"><stop offset="0" stop-color="#a8a8a8"/><stop offset="1" stop-color="#1f1f1f"/></linearGradient><linearGradient id="linear-gradient-22" x1="273.75" y1="367.8" x2="273.75" y2="285.92" gradientTransform="translate(0 425.89) scale(1 -1)" gradientUnits="userSpaceOnUse"><stop offset="0" stop-color="#a8a8a8"/><stop offset="1" stop-color="#1f1f1f"/></linearGradient></defs><g><polygon points="534.15 52.45 534.15 152.66 372.82 355.91 194.11 355.91 32.78 152.66 32.78 52.45 534.15 52.45" style="fill:#f6f6f6;"/><g><g><polygon points="360.98 177.06 360.98 180.02 359.01 182.59 355.06 185.94 350.12 187.52 342.81 190.09 337.68 191.28 341.23 188.12 341.43 185.75 339.06 182.98 333.92 180.41 317.93 177.06 300.94 175.48 283.76 175.28 266.58 175.48 249.59 177.06 233.6 180.41 228.46 182.98 226.09 185.75 226.29 188.12 229.84 191.28 224.71 190.09 217.4 187.52 212.47 185.94 208.52 182.59 206.54 180.02 206.54 177.06 206.54 177.06 206.55 177.05 210.23 174.92 212.59 173.57 218.93 171.86 229.88 168.93 241.69 167.18 258.09 166 276.26 165.21 283.76 165.01 291.26 165.21 309.44 166 325.83 167.18 337.65 168.93 348.59 171.86 354.93 173.57 357.29 174.92 360.98 177.06" style="fill:#6d6e71; stroke:#414042; stroke-width:.26px;"/><polygon points="341.43 185.75 341.23 188.12 337.68 191.28 329.97 194.64 325.24 195.82 328.79 193.05 328.59 190.88 323.85 187.92 312 185.75 296.99 184.17 283.76 184.56 270.53 184.17 255.52 185.75 243.67 187.92 238.93 190.88 238.73 193.05 242.29 195.82 237.55 194.64 229.84 191.28 226.29 188.12 226.09 185.75 228.46 182.98 233.6 180.41 249.59 177.06 266.58 175.48 283.76 175.28 300.94 175.48 317.93 177.06 333.92 180.41 339.06 182.98 341.43 185.75" style="fill:#808285; stroke:#414042; stroke-width:.26px;"/><polygon points="328.79 193.05 325.23 195.82 320.3 197.59 312.99 198.78 306.28 199.57 301.34 199.77 306.08 197.59 305.29 195.62 301.93 194.83 294.43 193.64 283.76 193.45 273.1 193.64 265.59 194.83 262.24 195.62 261.44 197.59 266.18 199.77 261.25 199.57 254.53 198.78 247.23 197.59 242.29 195.82 238.73 193.05 238.93 190.88 243.67 187.92 255.52 185.75 270.53 184.17 283.76 184.56 296.99 184.17 312 185.75 323.85 187.92 328.59 190.88 328.79 193.05" style="fill:#939598; stroke:#414042; stroke-width:.26px;"/><polygon points="283.76 145.44 283.76 165.01 276.26 165.21 258.09 166 241.69 167.18 229.88 168.93 218.93 171.86 212.59 173.57 210.23 174.92 206.55 177.05 209.21 173.8 212.96 171.58 218.04 169.18 223.77 166.38 229.49 164.01 239.13 161.63 248.21 159.54 256.17 157.73 257.98 157.03 260.08 153.95 264.41 149.91 268.74 146.97 274.6 145.85 279.77 145.44 283.76 145.44" style="fill:#58595b; stroke:#414042; stroke-width:.26px;"/><polygon points="283.76 145.44 283.76 165.01 291.26 165.21 309.43 166 325.83 167.18 337.64 168.93 348.59 171.86 354.93 173.57 357.29 174.92 360.97 177.05 358.31 173.8 354.56 171.58 349.48 169.18 343.75 166.38 338.03 164.01 328.39 161.63 319.31 159.54 311.35 157.73 309.54 157.03 307.44 153.95 303.11 149.91 298.78 146.97 292.92 145.85 287.75 145.44 283.76 145.44" style="fill:#58595b; stroke:#414042; stroke-width:.26px;"/><polygon points="306.08 197.59 301.34 199.77 297.04 200.67 291.66 201.23 275.86 201.23 270.48 200.67 266.18 199.77 261.44 197.59 262.24 195.62 265.59 194.83 273.1 193.64 283.76 193.45 294.43 193.64 301.93 194.83 305.29 195.62 306.08 197.59" style="fill:#a7a9ac; stroke:#414042; stroke-width:.26px;"/><path d="M283.36,197.34l-49.62,45.67-30.24,27.83c-2.14-2.32-4.18-4.73-6.11-7.24l32.56-25.09,53.42-41.17Z" style="fill:url(#radial-gradient);"/><path d="M307.08,303.28c-3.06,.68-6.17,1.23-9.32,1.65l-5.45-40.74-8.95-66.85,14.74,65.82,8.98,40.12Z" style="fill:url(#radial-gradient-2);"/><path d="M325.12,297.55c-2.9,1.21-5.87,2.3-8.89,3.26l-12.45-39.18-20.42-64.29,25.95,62.26,15.81,37.95Z" style="fill:url(#radial-gradient-3);"/><path d="M341.88,288.77c-2.65,1.7-5.39,3.29-8.19,4.76l-19.05-36.42-31.28-59.76,36.36,56.81,22.16,34.62Z" style="fill:url(#radial-gradient-4);"/><path d="M356.85,277.2c-2.32,2.14-4.74,4.18-7.24,6.11l-25.09-32.55-41.17-53.42,45.67,49.63,27.83,30.24Z" style="fill:url(#radial-gradient-5);"/><path d="M369.61,263.24c-1.92,2.51-3.95,4.93-6.08,7.26l-30.36-27.7-49.82-45.45,53.59,40.94,32.66,24.95Z" style="fill:url(#radial-gradient-6);"/><path d="M379.76,247.26c-1.46,2.81-3.03,5.55-4.73,8.21l-34.71-22.01-56.96-36.12,59.9,31.02,36.5,18.9Z" style="fill:url(#radial-gradient-7);"/><path d="M283.36,197.34l-20.15,64.37-12.28,39.23c-3.03-.94-6-2.02-8.91-3.22l15.65-38.02,25.68-62.37Z" style="fill:url(#radial-gradient-8);"/><path d="M283.36,197.34l-31.02,59.89-18.9,36.51c-2.81-1.46-5.55-3.04-8.21-4.73l22.01-34.71,36.12-56.96Z" style="fill:url(#radial-gradient-9);"/><path d="M283.36,197.34l-40.94,53.59-24.95,32.66c-2.51-1.92-4.93-3.95-7.26-6.08l27.7-30.36,45.45-49.82Z" style="fill:url(#radial-gradient-10);"/><path d="M283.36,197.34l-56.81,36.36-34.62,22.16c-1.7-2.65-3.29-5.38-4.76-8.19l36.42-19.06,59.77-31.27Z" style="fill:url(#radial-gradient-11);"/><path d="M288.32,305.76c-1.65,.08-3.3,.12-4.97,.12-1.51,0-3.01-.03-4.5-.09l1.71-41.07,2.8-67.38,3.08,67.36,1.88,41.06Z" style="fill:url(#radial-gradient-12);"/><path d="M283.36,197.34l-8.66,66.89-5.28,40.76c-3.15-.4-6.27-.94-9.33-1.61l8.81-40.15,14.46-65.88Z" style="fill:url(#radial-gradient-13);"/></g><path d="M283.44,276.18s.02,.04,.03,.05c0,0,0,0,0,0,0,0-.02,.02-.02,.04v-.1Z" style="fill:#bcbec0; stroke:#000; stroke-miterlimit:10; stroke-width:.25px;"/><path d="M283.49,276.18v.1s-.01-.03-.02-.04c0,0,0,0,0,0,0-.02,.02-.04,.03-.05Z" style="fill:#bcbec0; stroke:#000; stroke-miterlimit:10; stroke-width:.25px;"/><g><path d="M350.4,325.43c-.9,.06-1.8,.13-2.72,.21-5.55,.46-11.38,1.17-17.36,2.12-19.8,3.15-36.66,8.32-46.47,13.7-.05,.03-.11,.06-.16,.09-.04,.02-.09,.05-.13,.07,0,0-.01,0-.02,0-.04,.02-.07,.04-.11,.06,.06-.05,.12-.09,.18-.13,0,0,0,0,.01-.01,.54-.4,1.12-.81,1.73-1.22,.39-.27,.8-.53,1.23-.8,.16-.1,.32-.2,.49-.3,.32-.19,.63-.38,.96-.58,2.21-1.29,4.74-2.59,7.55-3.87,.37-.17,.74-.33,1.12-.5,0,0,0,0,0,0,.43-.19,.87-.38,1.31-.57,2.24-.96,4.64-1.9,7.17-2.81,.5-.18,1.02-.36,1.53-.54,2.12-.74,4.32-1.47,6.6-2.17,1.06-.33,2.14-.65,3.24-.96,.42-.12,.84-.24,1.26-.36,.45-.13,.9-.25,1.36-.37,2.94-.81,5.98-1.57,9.11-2.29,3.42-.79,6.8-1.48,10.1-2.07,1.59-.29,3.16-.55,4.71-.8,1.24-.2,2.46-.38,3.67-.54h0s-8.55-46.06-8.55-46.06l-.25-1.35-.47-2.51-.71-3.84-.72-3.88c.74-.06,1.48-.12,2.21-.17l.78,4,.77,3.98,.47,2.41,.31,1.61,9.78,50.47Z" style="fill:#fff; stroke:#000; stroke-miterlimit:10; stroke-width:.25px;"/><path d="M346.79,320.77h0c-1.21,.17-2.43,.35-3.67,.55-1.55,.25-3.12,.51-4.71,.8-3.31,.6-6.69,1.29-10.1,2.07-3.13,.72-6.18,1.48-9.11,2.29-.45,.12-.91,.25-1.36,.37-.42,.12-.84,.24-1.26,.36-1.1,.32-2.17,.64-3.24,.96-2.28,.7-4.49,1.43-6.6,2.17-.51,.18-1.02,.36-1.53,.54-2.53,.92-4.93,1.86-7.17,2.81-.44,.19-.88,.38-1.31,.57,0,0,0,0,0,0-.38,.17-.76,.33-1.12,.5-2.81,1.28-5.35,2.57-7.55,3.87-.33,.19-.64,.38-.96,.58-.17,.1-.33,.2-.49,.3-.43,.27-.83,.53-1.23,.8-.61,.41-1.19,.82-1.73,1.22,0,0,0,0-.01,.01-.06,.04-.12,.09-.18,.13,.03-.03,.06-.06,.09-.09,.02-.02,.03-.03,.05-.05,.12-.13,.24-.26,.37-.39,.08-.08,.15-.16,.23-.24,.19-.2,.4-.39,.61-.59,.09-.09,.19-.17,.28-.26,.18-.17,.37-.33,.57-.51,.1-.08,.19-.17,.3-.25,.11-.09,.22-.19,.34-.28,.08-.06,.16-.13,.24-.2,.07-.06,.14-.12,.22-.18,1.1-.89,2.36-1.79,3.74-2.7,.31-.2,.62-.4,.94-.61,.73-.46,1.5-.93,2.3-1.4,.19-.11,.39-.23,.59-.34,.4-.23,.8-.45,1.21-.68,.41-.23,.83-.45,1.26-.68,.42-.23,.86-.45,1.3-.68,1.54-.8,3.16-1.59,4.86-2.37,.47-.22,.95-.43,1.43-.65,1.01-.45,2.06-.91,3.11-1.35,.77-.33,1.56-.65,2.36-.97,.28-.11,.57-.23,.85-.34,.54-.21,1.08-.42,1.63-.63,.01,0,.02,0,.03-.01,.83-.32,1.67-.63,2.52-.95,3.45-1.27,7.08-2.48,10.86-3.63,4.04-1.22,8.04-2.3,11.93-3.22,1.55-.37,3.09-.71,4.61-1.03l-7.31-41.98-.18-1.05-.45-2.6-.63-3.64-.65-3.7-.66-3.83c1-.16,2-.31,2.98-.44l.74,3.99,.72,3.88,.71,3.84,.47,2.51,.25,1.35,8.54,46.06Z" style="fill:#fff; stroke:#000; stroke-miterlimit:10; stroke-width:.25px;"/><path d="M342.25,316.38c-1.52,.32-3.05,.66-4.61,1.03-3.89,.92-7.89,2-11.93,3.22-3.78,1.15-7.41,2.36-10.86,3.63-.85,.31-1.69,.63-2.52,.95,0,0-.02,0-.03,.01-.55,.21-1.08,.42-1.63,.63-.28,.11-.57,.23-.85,.34-.8,.32-1.59,.65-2.36,.97-1.06,.45-2.1,.9-3.11,1.35-.48,.22-.96,.43-1.43,.65-1.7,.79-3.33,1.58-4.86,2.37-.44,.22-.87,.45-1.3,.68-.43,.23-.85,.45-1.26,.68-.41,.23-.81,.46-1.21,.68-.2,.11-.39,.23-.59,.34-.8,.47-1.57,.93-2.3,1.4-.32,.2-.63,.4-.94,.61-1.39,.91-2.64,1.81-3.74,2.7-.08,.06-.15,.12-.22,.18-.09,.07-.17,.13-.24,.2-.12,.09-.23,.19-.34,.28-.1,.08-.2,.17-.3,.25-.2,.17-.39,.34-.57,.51-.09,.09-.19,.18-.28,.26-.21,.2-.42,.39-.61,.59-.08,.08-.16,.16-.23,.24-.13,.13-.25,.26-.37,.39-.02,.02-.03,.03-.05,.05-.03,.03-.06,.06-.09,.09,0-.02,.02-.03,.03-.05,.02-.03,.03-.06,.05-.09,3.45-6.93,18.61-16.73,38.97-24.51,4.87-1.86,9.69-3.47,14.34-4.81l-6.13-38.14-.11-.73-.43-2.64-.54-3.39-.55-3.46-.58-3.61-.61-3.85c1.28-.31,2.55-.59,3.8-.85l.71,4.05,.66,3.83,.65,3.7,.63,3.64,.45,2.6,.18,1.05,7.31,41.98Z" style="fill:#fff; stroke:#000; stroke-miterlimit:10; stroke-width:.25px;"/><path d="M336.82,312.22c-4.64,1.34-9.46,2.95-14.34,4.81-20.36,7.77-35.52,17.57-38.97,24.51,0,.01-.02,.03-.02,.05,0,.01-.01,.03-.02,.05t0,0s0,0,0,0c0,0,0,0,0,0,0,0,0,0,0,0h0s0,0,0,0c0,0,0,0,0,0,0,0,0,0,0,0v-65.4s.01-.03,.02-.04c0,0,0,0,0,0,0-.02,.02-.04,.03-.05,.33-.66,.78-1.35,1.36-2.07,.08-.1,.16-.19,.23-.28,.13-.16,.27-.31,.41-.47,4.8-5.33,15.84-11.88,29.92-17.26,3.99-1.53,7.95-2.85,11.76-3.95l.69,4.25,.61,3.85,.58,3.61,.55,3.46,.54,3.39,.43,2.64,.11,.73,6.13,38.14Z" style="fill:#fff; stroke:#000; stroke-miterlimit:10; stroke-width:.25px;"/><path d="M354.73,335.3c-.08,0-.16,0-.25-.01-.15,0-.3-.02-.45-.02-6.66-.37-13.78-.48-21.16-.29-19.17,.5-36.38,2.93-48.46,6.42-.02,0-.04,0-.05,.02-.15,.04-.29,.08-.44,.13h-.01s0,0,0,0c-.08,.02-.16,.04-.24,.07t0,0s-.06,.02-.09,.02c0,0,0,0,0,0-.02,0-.05,.01-.07,.02,0,0,0,0,0,0h0s0,0,0,0h0s0,0,0,0c0,0-.02,0-.03,0,0,0,0,0,.01,0h0s0,0,0,0h0s0,0,0,0c0,0,0,0,0,0h0s0,0,0,0c.03,0,.06-.02,.09-.03,.07-.03,.13-.06,.2-.09h0c.18-.08,.37-.15,.55-.22,11.09-4.44,28.12-8.18,47.52-9.96,6.76-.63,13.31-.96,19.5-1.04,.57,0,1.14-.02,1.71-.02h0s-10.95-55.16-10.95-55.16l-.36-1.78-.46-2.33c.19,0,.39,.02,.58,.03l.47,2.3,12.4,61.95Z" style="fill:#fff; stroke:#000; stroke-miterlimit:10; stroke-width:.25px;"/><g><path d="M336.84,312.21s-.02,0-.02,0" style="fill:none; stroke:#000; stroke-miterlimit:10; stroke-width:.25px;"/><path d="M342.32,316.37s-.04,0-.07,.02" style="fill:none; stroke:#000; stroke-miterlimit:10; stroke-width:.25px;"/><path d="M346.83,320.77s-.03,0-.04,0" style="fill:none; stroke:#000; stroke-miterlimit:10; stroke-width:.25px;"/><path d="M350.42,325.43s-.02,0-.02,0" style="fill:none; stroke:#000; stroke-miterlimit:10; stroke-width:.25px;"/><path d="M355.5,340.34c-6.92-.84-14.33-1.44-22.05-1.74-19.03-.75-36.43,.43-49.31,2.94h0c-.22,.04-.43,.09-.64,.13,0,0,0,0,0,0,.02,0,.05-.02,.07-.02,0,0,0,0,0,0,.03,0,.06-.02,.09-.02t0,0c.08-.03,.17-.05,.24-.07,0,0,0,0,0,0h.01c.15-.05,.29-.09,.44-.13,.02,0,.03-.01,.05-.02,12.08-3.49,29.29-5.91,48.46-6.42,7.38-.19,14.5-.08,21.16,.29,.15,0,.3,.01,.45,.02l1.01,5.05Z" style="fill:#fff; stroke:#000; stroke-miterlimit:10; stroke-width:.25px;"/><path d="M353.05,330.3c-.56,0-1.13,0-1.71,.02-6.19,.08-12.74,.42-19.5,1.04-19.4,1.78-36.42,5.52-47.52,9.96-.18,.07-.37,.15-.55,.22h0c-.07,.03-.14,.06-.2,.08-.05,.02-.1,.04-.14,.06,.04-.02,.07-.04,.11-.06,0,0,.01,0,.02,0,.04-.02,.09-.05,.13-.07,.05-.03,.11-.06,.16-.09,9.81-5.38,26.67-10.54,46.47-13.7,5.98-.95,11.81-1.65,17.36-2.12,.91-.08,1.82-.15,2.72-.21l-9.78-50.47-.31-1.61-.47-2.41-.77-3.98c.47,0,.93-.01,1.4-.01l.81,4.07,.46,2.33,.36,1.78,10.95,55.16Z" style="fill:#fff; stroke:#000; stroke-miterlimit:10; stroke-width:.25px;"/><path d="M353.08,330.3h-.03" style="fill:none; stroke:#000; stroke-miterlimit:10; stroke-width:.25px;"/><path d="M354.78,335.3s-.03,0-.04,0" style="fill:none; stroke:#000; stroke-miterlimit:10; stroke-width:.25px;"/></g><path d="M283.49,341.67h0s-.02,0-.03,0c0,0,0,0,0,0h0s0,0,0,0Z" style="fill:#bcbec0; stroke:#000; stroke-miterlimit:10; stroke-width:.25px;"/><path d="M285.49,273.36c-.14,.16-.28,.31-.41,.47-.08,.09-.16,.19-.23,.28-.58,.72-1.03,1.41-1.36,2.07,0,.02-.02,.04-.03,.05,0-.02-.02-.04-.03-.05-.32-.66-.78-1.35-1.36-2.07-.08-.09-.15-.19-.24-.28-.13-.16-.26-.31-.4-.47h4.06Z" style="fill:#bcbec0; stroke:#000; stroke-miterlimit:10; stroke-width:.25px;"/><path d="M216.53,325.43c.9,.06,1.8,.13,2.72,.21,5.55,.46,11.38,1.17,17.36,2.12,19.79,3.15,36.66,8.32,46.46,13.7,.05,.03,.11,.06,.16,.09,.04,.02,.09,.05,.13,.07,0,0,.01,0,.02,0,.04,.02,.07,.04,.11,.06-.06-.05-.12-.09-.18-.13,0,0-.01,0-.01-.01-.54-.4-1.11-.81-1.73-1.22-.39-.27-.8-.53-1.23-.8-.16-.1-.32-.2-.49-.3-.32-.19-.63-.38-.96-.58-2.21-1.29-4.75-2.59-7.55-3.87-.37-.17-.74-.33-1.12-.5,0,0,0,0,0,0-.43-.19-.87-.38-1.31-.57-2.24-.96-4.64-1.9-7.17-2.81-.5-.18-1.02-.36-1.52-.54-2.12-.74-4.32-1.47-6.6-2.17-1.06-.33-2.14-.65-3.24-.96-.42-.12-.84-.24-1.26-.36-.45-.13-.9-.25-1.36-.37-2.94-.81-5.98-1.57-9.11-2.29-3.42-.79-6.8-1.48-10.1-2.07-1.59-.29-3.16-.55-4.71-.8-1.24-.2-2.46-.38-3.67-.54h0s8.54-46.06,8.54-46.06l.25-1.35,.46-2.51,.71-3.84,.72-3.88c-.74-.06-1.48-.12-2.21-.17l-.78,4-.77,3.98-.47,2.41-.31,1.61-9.78,50.47Z" style="fill:#fff; stroke:#000; stroke-miterlimit:10; stroke-width:.25px;"/><path d="M220.15,320.77h0c1.21,.17,2.43,.35,3.67,.55,1.55,.25,3.12,.51,4.71,.8,3.31,.6,6.69,1.29,10.1,2.07,3.13,.72,6.18,1.48,9.11,2.29,.45,.12,.91,.25,1.36,.37,.42,.12,.84,.24,1.26,.36,1.09,.32,2.17,.64,3.24,.96,2.28,.7,4.49,1.43,6.6,2.17,.51,.18,1.02,.36,1.52,.54,2.53,.92,4.93,1.86,7.17,2.81,.44,.19,.88,.38,1.31,.57,0,0,0,0,0,0,.38,.17,.76,.33,1.12,.5,2.81,1.28,5.35,2.57,7.55,3.87,.33,.19,.64,.38,.96,.58,.16,.1,.33,.2,.49,.3,.43,.27,.83,.53,1.23,.8,.61,.41,1.19,.82,1.73,1.22,0,0,0,0,.01,.01,.06,.04,.12,.09,.18,.13-.03-.03-.06-.06-.09-.09-.02-.02-.03-.03-.05-.05-.12-.13-.24-.26-.37-.39-.08-.08-.15-.16-.23-.24-.19-.2-.4-.39-.61-.59-.09-.09-.19-.17-.28-.26-.18-.17-.37-.33-.57-.51-.1-.08-.2-.17-.3-.25-.11-.09-.22-.19-.34-.28-.08-.06-.16-.13-.24-.2-.07-.06-.14-.12-.22-.18-1.1-.89-2.36-1.79-3.74-2.7-.31-.2-.62-.4-.94-.61-.73-.46-1.5-.93-2.3-1.4-.2-.11-.39-.23-.59-.34-.4-.23-.8-.45-1.21-.68-.41-.23-.83-.45-1.26-.68-.43-.23-.86-.45-1.3-.68-1.54-.8-3.16-1.59-4.86-2.37-.47-.22-.95-.43-1.43-.65-1.01-.45-2.06-.91-3.11-1.35-.77-.33-1.56-.65-2.36-.97-.28-.11-.57-.23-.85-.34-.54-.21-1.08-.42-1.63-.63-.01,0-.02,0-.03-.01-.83-.32-1.67-.63-2.52-.95-3.45-1.27-7.08-2.48-10.86-3.63-4.04-1.22-8.04-2.3-11.93-3.22-1.55-.37-3.09-.71-4.61-1.03l7.31-41.98,.18-1.05,.45-2.6,.63-3.64,.65-3.7,.66-3.83c-1-.16-2-.31-2.98-.44l-.74,3.99-.72,3.88-.71,3.84-.46,2.51-.25,1.35-8.54,46.06Z" style="fill:#fff; stroke:#000; stroke-miterlimit:10; stroke-width:.25px;"/><path d="M224.68,316.38c1.51,.32,3.05,.66,4.61,1.03,3.89,.92,7.89,2,11.93,3.22,3.78,1.15,7.42,2.36,10.86,3.63,.85,.31,1.69,.63,2.52,.95,0,0,.02,0,.03,.01,.55,.21,1.09,.42,1.63,.63,.28,.11,.57,.23,.85,.34,.8,.32,1.59,.65,2.36,.97,1.06,.45,2.1,.9,3.11,1.35,.48,.22,.96,.43,1.43,.65,1.7,.79,3.32,1.58,4.86,2.37,.44,.22,.87,.45,1.3,.68,.43,.23,.85,.45,1.26,.68,.41,.23,.82,.46,1.21,.68,.2,.11,.39,.23,.59,.34,.8,.47,1.57,.93,2.3,1.4,.32,.2,.63,.4,.94,.61,1.39,.91,2.64,1.81,3.74,2.7,.08,.06,.15,.12,.22,.18,.09,.07,.16,.13,.24,.2,.12,.09,.23,.19,.34,.28,.1,.08,.2,.17,.3,.25,.19,.17,.39,.34,.57,.51,.1,.09,.19,.18,.28,.26,.21,.2,.42,.39,.61,.59,.08,.08,.16,.16,.23,.24,.13,.13,.25,.26,.37,.39,.02,.02,.03,.03,.05,.05,.03,.03,.06,.06,.09,.09,0-.02-.02-.03-.03-.05-.02-.03-.03-.06-.05-.09-3.45-6.93-18.61-16.73-38.97-24.51-4.87-1.86-9.69-3.47-14.34-4.81l6.13-38.14,.11-.73,.43-2.64,.54-3.39,.55-3.46,.58-3.61,.61-3.85c-1.28-.31-2.55-.59-3.8-.85l-.71,4.05-.66,3.83-.65,3.7-.63,3.64-.45,2.6-.18,1.05-7.31,41.98Z" style="fill:#fff; stroke:#000; stroke-miterlimit:10; stroke-width:.25px;"/><path d="M283.49,276.28v65.4s0,0,0,0c0,0,0,0,0,0h0s0,0,0,0c0,0,0,0,0,0,0,0,0,0,0,0t0,0s-.02-.03-.02-.05c0-.02-.01-.03-.02-.05-3.45-6.94-18.61-16.73-38.97-24.51-4.87-1.86-9.69-3.47-14.34-4.81l6.12-38.14,.11-.73,.43-2.64,.54-3.39,.55-3.46,.58-3.61,.61-3.85,.69-4.25c3.81,1.1,7.76,2.42,11.76,3.95,14.08,5.37,25.12,11.93,29.92,17.26,.14,.16,.28,.31,.4,.47,.08,.09,.16,.19,.24,.28,.58,.72,1.04,1.41,1.36,2.07,0,.02,.02,.04,.03,.05,0,0,0,0,0,0,.01,0,.02,.02,.02,.04Z" style="fill:#fff; stroke:#000; stroke-miterlimit:10; stroke-width:.25px;"/><path d="M283.49,341.68s-.02,0-.03,0c0,0,0,0,0,0h0s0,0,0,0c0,0,0,0,0,0-.02,0-.05-.02-.07-.02,0,0,0,0,0,0-.03,0-.06-.02-.09-.02t0,0c-.08-.03-.17-.05-.24-.07,0,0,0,0,0,0h-.01c-.15-.05-.29-.09-.44-.13-.02,0-.03-.01-.05-.02-12.08-3.49-29.29-5.91-48.46-6.42-7.38-.19-14.5-.08-21.16,.29-.15,0-.3,.01-.45,.02-.08,0-.16,0-.24,.01l12.4-61.95,.47-2.3c.2-.01,.39-.02,.58-.03l-.46,2.33-.36,1.78-10.95,55.16h0c.56,0,1.13,.01,1.71,.02,6.19,.08,12.74,.42,19.5,1.04,19.4,1.78,36.43,5.52,47.52,9.96,.18,.07,.37,.15,.55,.22h0c.07,.03,.14,.06,.2,.09,.03,0,.06,.02,.09,.03,0,0,0,0,0,0h0s0,0,0,0h0s0,0,0,0h0s0,0,.01,0Z" style="fill:#fff; stroke:#000; stroke-miterlimit:10; stroke-width:.25px;"/><g><path d="M230.11,312.22s-.02,0-.02,0" style="fill:none; stroke:#000; stroke-miterlimit:10; stroke-width:.25px;"/><path d="M224.67,316.38s-.04,0-.07-.02" style="fill:none; stroke:#000; stroke-miterlimit:10; stroke-width:.25px;"/><path d="M220.14,320.77s-.03,0-.04,0" style="fill:none; stroke:#000; stroke-miterlimit:10; stroke-width:.25px;"/><path d="M216.53,325.43s-.02,0-.02,0" style="fill:none; stroke:#000; stroke-miterlimit:10; stroke-width:.25px;"/><path d="M283.44,341.67c-.22-.04-.43-.09-.64-.13h0c-12.88-2.51-30.28-3.69-49.31-2.94-7.72,.3-15.13,.9-22.05,1.74l1.01-5.05c.15,0,.3-.02,.45-.02,6.66-.37,13.78-.48,21.16-.29,19.17,.5,36.38,2.93,48.46,6.42,.02,0,.04,0,.05,.02,.15,.04,.29,.08,.44,.13h.01s0,0,0,0c.08,.02,.16,.04,.24,.07t0,0s.06,.02,.09,.02c0,0,0,0,0,0,.02,0,.05,.01,.07,.02,0,0,0,0,0,0Z" style="fill:#fff; stroke:#000; stroke-miterlimit:10; stroke-width:.25px;"/><path d="M213.88,330.3c.56,0,1.13,0,1.71,.02,6.19,.08,12.74,.42,19.5,1.04,19.4,1.78,36.43,5.52,47.52,9.96,.18,.07,.37,.15,.55,.22h0c.07,.03,.14,.06,.2,.08,.05,.02,.1,.04,.14,.06-.04-.02-.07-.04-.11-.06,0,0-.01,0-.02,0-.04-.02-.09-.05-.13-.07-.05-.03-.11-.06-.16-.09-9.8-5.38-26.67-10.54-46.46-13.7-5.98-.95-11.81-1.65-17.36-2.12-.91-.08-1.82-.15-2.72-.21l9.78-50.47,.31-1.61,.47-2.41,.77-3.98c-.47,0-.93-.01-1.4-.01l-.81,4.07-.46,2.33-.36,1.78-10.95,55.16Z" style="fill:#fff; stroke:#000; stroke-miterlimit:10; stroke-width:.25px;"/><path d="M213.88,330.3h-.03" style="fill:none; stroke:#000; stroke-miterlimit:10; stroke-width:.25px;"/><path d="M212.19,335.3s-.03,0-.04,0" style="fill:none; stroke:#000; stroke-miterlimit:10; stroke-width:.25px;"/></g><path d="M294.22,343.42c0,1.04-4.8,1.87-10.73,1.88h-.05c-5.94,0-10.73-.85-10.73-1.88h.77c.4,.47,3.69,1.25,9.97,1.36h.05c6.28-.11,9.56-.89,9.97-1.36h.77Z" style="fill:#808285; stroke:#000; stroke-miterlimit:10; stroke-width:.25px;"/><path d="M358.25,343.42h-64.79c-.4,.47-3.68,1.25-9.97,1.36h-.05c-6.28-.11-9.56-.89-9.97-1.36h-64.79l14.03-70.06h1.89l-12.4,61.95c.08,0,.16,0,.24-.01l-1.01,5.05c6.92-.84,14.33-1.44,22.05-1.74,19.03-.75,36.43,.43,49.31,2.94h0c.21,.04,.43,.09,.64,.13h0s.02,0,.03,0c0,0,.02,0,.03,0h0c.22-.05,.43-.1,.64-.14h0c12.88-2.51,30.28-3.69,49.31-2.94,7.72,.3,15.13,.9,22.05,1.74l-1.01-5.05c.08,0,.16,0,.25,.01l-12.4-61.95h1.89l14.03,70.06Z" style="fill:url(#linear-gradient); stroke:#000; stroke-miterlimit:10; stroke-width:.25px;"/><path d="M283.47,341.68s-.02,0-.03,0h0s0,0,0,0h0s0,0,0,0c0,0,0,0,.01,0Z" style="fill:#bcbec0; stroke:#000; stroke-miterlimit:10; stroke-width:.25px;"/></g><path d="M314.18,267.53c-.09,0-.18,0-.28,0l-.84-5.5c2.01-1.06,3.38-3.17,3.38-5.61,0-3.51-2.84-6.35-6.35-6.35-1.32,0-2.55,.4-3.57,1.1l-17.68-15.82c.61-.97,.96-2.13,.96-3.36,0-3.5-2.84-6.34-6.35-6.34s-6.35,2.84-6.35,6.34c0,1.23,.35,2.38,.96,3.36l-17.68,15.82c-1.02-.7-2.25-1.1-3.57-1.1-3.51,0-6.35,2.84-6.35,6.35,0,2.43,1.37,4.55,3.38,5.61l-.84,5.5c-.09,0-.18,0-.27,0-4.76,0-8.61,3.86-8.61,8.61s3.85,8.61,8.61,8.61c2.6,0,4.92-1.15,6.5-2.96l16.81,14.59c-.68,1.23-1.07,2.65-1.07,4.16,0,4.05,2.79,7.43,6.55,8.36-5.48,.14-9.65,.88-9.65,1.76v3.97h23.16v-3.97c0-.89-4.18-1.62-9.66-1.76,3.76-.93,6.55-4.31,6.55-8.36,0-1.51-.39-2.93-1.07-4.16l16.81-14.59c1.58,1.81,3.9,2.96,6.5,2.96,4.76,0,8.61-3.86,8.61-8.61,0-4.76-3.85-8.61-8.61-8.61Zm-56.1,1.86c-.94-.74-2.03-1.29-3.22-1.59l.79-5.13c.38,.07,.78,.11,1.18,.11,1.46,0,2.81-.49,3.87-1.32l3.17,2.75-5.79,5.19Zm19.34-2.89l-5.81,1.94-4.92-4.27,2.64-2.36,7.8,2.46c0,.1,0,.19,0,.29,0,.67,.11,1.32,.3,1.93Zm-12.14-3.55l-3.28-2.85c.12-.16,.22-.32,.32-.49l4.94,1.56-1.99,1.78Zm.02,2.48l4.27,3.7-9.16,3.07c-.27-.53-.61-1.04-.98-1.5l5.88-5.27Zm17.24,26.57c-2.14,.27-4.04,1.31-5.39,2.85l-16.83-14.6c.66-1.22,1.04-2.62,1.04-4.1,0-.76-.1-1.5-.29-2.21l10.13-3.39,6.66,5.78c-.47,.89-.74,1.9-.74,2.97,0,3.19,2.35,5.82,5.41,6.28v6.42Zm0-18.97c-1.38,.21-2.62,.85-3.56,1.8l-5.72-4.96,5.01-1.67c.97,1.41,2.51,2.4,4.28,2.66v2.18h0Zm0-14.73c-2.34,.35-4.27,1.97-5.04,4.15l-6.54-2.06,6.55-5.86c1.33,1.29,3.08,2.15,5.03,2.35v1.43h0Zm0-18.55c-4.32,.46-7.68,4.12-7.68,8.56,0,1.76,.53,3.41,1.44,4.77l-7.42,6.64-5.87-1.85c.11-.46,.17-.95,.17-1.44,0-1.5-.52-2.89-1.4-3.98l17.51-15.67c.9,.78,2.01,1.32,3.25,1.5v1.47Zm1.86-1.47c1.23-.18,2.35-.72,3.25-1.5l17.51,15.67c-.88,1.09-1.4,2.47-1.4,3.98,0,.5,.06,.98,.17,1.44l-5.87,1.85-7.42-6.64c.91-1.37,1.44-3.01,1.44-4.77,0-4.44-3.36-8.1-7.68-8.56v-1.47Zm5.4,26l7.8-2.46,2.63,2.36-4.92,4.27-5.81-1.94c.2-.61,.3-1.26,.3-1.93,0-.1,0-.19,0-.29Zm9.86-3.11l4.94-1.56c.1,.17,.2,.33,.32,.49l-3.28,2.85-1.99-1.78Zm-15.27-4.3c1.95-.21,3.7-1.07,5.03-2.35l6.55,5.86-6.54,2.06c-.77-2.17-2.7-3.8-5.04-4.15v-1.43Zm0,13.99c1.77-.26,3.3-1.25,4.28-2.66l5.01,1.67-5.72,4.96c-.94-.94-2.18-1.59-3.56-1.8v-2.18h0Zm5.39,24c-1.36-1.54-3.25-2.58-5.39-2.85v-6.42c3.06-.45,5.41-3.09,5.41-6.28,0-1.08-.27-2.09-.74-2.97l6.66-5.78,10.13,3.39c-.19,.7-.28,1.44-.28,2.21,0,1.49,.38,2.89,1.04,4.1l-16.83,14.6Zm16.74-22.65l-9.16-3.07,4.27-3.7,5.88,5.27c-.37,.46-.71,.97-.98,1.5Zm2.32-2.81l-5.8-5.19,3.17-2.75c1.07,.83,2.42,1.32,3.88,1.32,.4,0,.8-.04,1.18-.11l.79,5.13c-1.19,.3-2.28,.85-3.22,1.59Z" style="fill:url(#linear-gradient-2); stroke:url(#linear-gradient-3); stroke-miterlimit:10; stroke-width:.25px;"/></g><g><path d="M61.29,95.8c-1.27,0-2.5-.17-3.68-.5s-2.28-.8-3.3-1.4-1.95-1.32-2.79-2.16c-.84-.84-1.56-1.77-2.16-2.79-.6-1.02-1.06-2.12-1.4-3.3-.33-1.18-.5-2.4-.5-3.68s.17-2.5,.5-3.68,.8-2.28,1.4-3.3c.6-1.02,1.32-1.95,2.16-2.79,.84-.84,1.77-1.56,2.79-2.16,1.02-.6,2.12-1.06,3.3-1.4,1.18-.33,2.4-.5,3.68-.5h24.87v2.49h-21.28c-1.47,0-2.86,.26-4.15,.77s-2.44,1.23-3.44,2.14c-1,.91-1.83,1.98-2.47,3.21-.65,1.23-1.05,2.55-1.22,3.97h32.56v2.49H53.61c.17,1.42,.57,2.75,1.22,3.98,.64,1.23,1.47,2.3,2.47,3.21,1,.9,2.15,1.61,3.44,2.13s2.67,.77,4.15,.77h21.28v2.49h-24.88Z" style="fill:url(#linear-gradient-4);"/><path d="M92.88,70.92v24.87h-3.04v-27.64h8.29l27.36,24.88v-24.88h3.04v27.64h-8.29l-27.36-24.87Z" style="fill:url(#linear-gradient-5);"/><path d="M147.14,95.8c-1.27,0-2.5-.17-3.68-.5-1.18-.33-2.28-.8-3.3-1.4-1.02-.6-1.95-1.32-2.79-2.16-.84-.84-1.56-1.77-2.16-2.79-.6-1.02-1.06-2.12-1.4-3.3-.33-1.18-.5-2.4-.5-3.68s.17-2.5,.5-3.68c.33-1.18,.8-2.28,1.4-3.3,.6-1.02,1.32-1.95,2.16-2.79,.84-.84,1.77-1.56,2.79-2.16,1.02-.6,2.12-1.06,3.3-1.4,1.18-.33,2.4-.5,3.68-.5h24.88v2.49h-21.28c-1.57,0-3.04,.3-4.42,.89-1.38,.59-2.58,1.4-3.61,2.42-1.02,1.02-1.83,2.23-2.42,3.61-.59,1.38-.89,2.86-.89,4.42s.3,3.04,.89,4.42c.59,1.38,1.4,2.58,2.42,3.61,1.02,1.02,2.23,1.83,3.61,2.42s2.86,.88,4.42,.88h21.28v2.49h-24.88Z" style="fill:url(#linear-gradient-6);"/><path d="M190,82.72l-16.31-14.57h7.74l12.27,10.97,13.16-10.97h5.53l-16.31,13.6v14.04h-6.08v-13.07Z" style="fill:url(#linear-gradient-7);"/><path d="M229.11,95.8c-1.27,0-2.5-.17-3.68-.5-1.18-.33-2.28-.8-3.3-1.4-1.02-.6-1.95-1.32-2.79-2.16-.84-.84-1.56-1.77-2.16-2.79-.6-1.02-1.06-2.12-1.4-3.3-.33-1.18-.5-2.4-.5-3.68s.17-2.5,.5-3.68,.8-2.28,1.4-3.3c.6-1.02,1.32-1.95,2.16-2.79,.84-.84,1.77-1.56,2.79-2.16,1.02-.6,2.12-1.06,3.3-1.4,1.18-.33,2.4-.5,3.68-.5h24.87v2.49h-21.28c-1.57,0-3.04,.3-4.42,.89-1.38,.59-2.58,1.4-3.61,2.42-1.02,1.02-1.83,2.23-2.42,3.61-.59,1.38-.88,2.86-.88,4.42s.29,3.04,.88,4.42c.59,1.38,1.4,2.58,2.42,3.61,1.02,1.02,2.23,1.83,3.61,2.42s2.86,.88,4.42,.88h21.28v2.49h-24.87Z" style="fill:url(#linear-gradient-8);"/><path d="M257.03,68.16h5.53v15.06c.17,1.42,.6,2.74,1.31,3.97,.71,1.23,1.6,2.29,2.68,3.21,1.08,.91,2.29,1.63,3.65,2.14,1.35,.52,2.77,.77,4.24,.77h7.46v2.49h-11.06c-1.27,0-2.5-.17-3.68-.5s-2.28-.8-3.3-1.4c-1.02-.6-1.95-1.32-2.79-2.16-.84-.84-1.56-1.77-2.16-2.79-.6-1.02-1.06-2.12-1.4-3.3-.33-1.18-.5-2.4-.5-3.68v-13.82h0Z" style="fill:url(#linear-gradient-9);"/><path d="M297.85,95.8c-1.27,0-2.5-.17-3.68-.5s-2.28-.8-3.3-1.4c-1.02-.6-1.95-1.32-2.79-2.16-.84-.84-1.56-1.77-2.16-2.79s-1.06-2.12-1.4-3.3c-.33-1.18-.5-2.4-.5-3.68s.17-2.5,.5-3.68c.33-1.18,.8-2.28,1.4-3.3,.6-1.02,1.32-1.95,2.16-2.79s1.77-1.56,2.79-2.16c1.02-.6,2.12-1.06,3.3-1.4,1.18-.33,2.4-.5,3.68-.5h11.06c1.9,0,3.69,.36,5.38,1.09s3.15,1.71,4.39,2.96,2.23,2.71,2.96,4.39c.73,1.69,1.09,3.48,1.09,5.38,0,1.27-.17,2.5-.5,3.68-.33,1.18-.8,2.28-1.4,3.3-.6,1.02-1.32,1.95-2.16,2.79-.84,.84-1.77,1.56-2.79,2.16-1.02,.6-2.12,1.06-3.3,1.4-1.18,.33-2.4,.5-3.68,.5h-11.06Zm-7.74-13.82c0,1.57,.3,3.04,.89,4.42,.59,1.38,1.4,2.58,2.42,3.61,1.02,1.02,2.22,1.83,3.61,2.42s2.86,.88,4.42,.88h3.87c1.57,0,3.04-.3,4.42-.88s2.58-1.4,3.61-2.42c1.02-1.02,1.83-2.23,2.42-3.61,.59-1.38,.89-2.86,.89-4.42s-.3-3.04-.89-4.42-1.4-2.58-2.42-3.61c-1.02-1.02-2.22-1.83-3.61-2.42-1.38-.59-2.86-.89-4.42-.89h-3.87c-1.57,0-3.04,.3-4.42,.89-1.38,.59-2.58,1.4-3.61,2.42-1.02,1.02-1.83,2.23-2.42,3.61s-.89,2.86-.89,4.42Z" style="fill:url(#linear-gradient-10);"/><path d="M327.45,68.16h31.79c.96,0,1.86,.2,2.69,.61,.84,.4,1.57,.94,2.2,1.62,.63,.67,1.12,1.45,1.48,2.33,.36,.88,.54,1.81,.54,2.76s-.18,1.9-.54,2.83c-.36,.93-.85,1.76-1.48,2.49s-1.36,1.31-2.2,1.75c-.84,.44-1.74,.66-2.69,.66h-26.26v12.58h-5.53v-27.64Zm27.92,12.58c.74,0,1.42-.14,2.06-.41,.63-.28,1.19-.65,1.66-1.12,.47-.47,.84-1.03,1.12-1.67s.41-1.33,.41-2.05-.14-1.4-.41-1.99c-.28-.59-.65-1.1-1.12-1.52-.47-.42-1.02-.75-1.66-.98-.64-.23-1.32-.35-2.06-.35h-22.39v10.09h22.39Z" style="fill:url(#linear-gradient-11);"/><path d="M384.11,68.16h6.08l5.5,9.18c.48-1.33,1.14-2.55,1.99-3.68,.85-1.12,1.84-2.1,2.97-2.92s2.39-1.46,3.76-1.91,2.81-.68,4.3-.68h14.65v2.49h-11.06c-1.47,0-2.86,.26-4.15,.77-1.29,.52-2.44,1.23-3.44,2.14-1,.91-1.83,1.98-2.47,3.21-.65,1.23-1.05,2.55-1.22,3.97h22.33v2.49h-22.33c.17,1.42,.57,2.75,1.22,3.98,.64,1.23,1.47,2.3,2.47,3.21,1,.9,2.15,1.61,3.44,2.13,1.29,.52,2.67,.77,4.15,.77h11.06v2.49h-22.66l-5.8-9.67h-17.88l-5.61,9.67h-3.32l16.03-27.64Zm-5.67,15.48h14.95l-7.6-12.66-7.35,12.66Z" style="fill:url(#linear-gradient-12);"/><path d="M427.92,68.16h24.88c1.9,0,3.69,.36,5.38,1.09s3.15,1.71,4.39,2.96c1.24,1.24,2.23,2.71,2.96,4.39,.73,1.69,1.09,3.48,1.09,5.38,0,1.27-.17,2.5-.5,3.68-.33,1.18-.8,2.28-1.4,3.3s-1.32,1.95-2.16,2.79c-.84,.84-1.77,1.56-2.79,2.16s-2.12,1.06-3.3,1.4c-1.18,.33-2.4,.5-3.68,.5h-24.88v-27.64h0Zm5.53,2.49v22.66h15.75c1.57,0,3.04-.3,4.42-.88s2.58-1.4,3.61-2.42c1.02-1.02,1.83-2.23,2.42-3.61,.59-1.38,.89-2.86,.89-4.42s-.3-3.04-.89-4.42-1.4-2.58-2.42-3.61c-1.02-1.02-2.23-1.83-3.61-2.42-1.38-.59-2.86-.89-4.42-.89h-15.75Z" style="fill:url(#linear-gradient-13);"/><path d="M471.34,68.16h5.53v27.64h-5.53v-27.64Z" style="fill:url(#linear-gradient-14);"/><path d="M496.79,68.16h6.08l16.58,27.64h-6.08l-5.8-9.67h-17.88l-5.61,9.67h-3.32l16.03-27.64Zm-5.67,15.48h14.95l-7.6-12.66-7.35,12.66Z" style="fill:url(#linear-gradient-15);"/><path d="M48.08,109.43h31.78c.96,0,1.86,.19,2.7,.58,.84,.39,1.57,.91,2.2,1.58,.63,.66,1.12,1.43,1.48,2.29,.36,.87,.54,1.78,.54,2.74s-.17,1.81-.51,2.6-.81,1.48-1.41,2.07c-.6,.59-1.3,1.05-2.11,1.4-.81,.34-1.68,.53-2.6,.57,.92,.04,1.79,.23,2.6,.57,.81,.34,1.52,.81,2.11,1.4,.6,.59,1.07,1.28,1.41,2.07s.51,1.66,.51,2.6-.18,1.87-.54,2.74-.85,1.63-1.48,2.29c-.63,.66-1.36,1.19-2.2,1.58-.84,.39-1.74,.58-2.7,.58h-31.78v-27.64Zm5.53,2.49v9.95h22.39c.74,0,1.42-.14,2.06-.42,.64-.28,1.19-.65,1.66-1.12,.47-.47,.84-1.03,1.12-1.67,.28-.64,.41-1.33,.41-2.04s-.14-1.4-.41-1.98c-.28-.58-.65-1.07-1.12-1.48-.47-.41-1.02-.72-1.66-.93-.64-.21-1.32-.32-2.06-.32,0,0-22.39,0-22.39,0Zm0,12.71v9.95h22.39c.74,0,1.42-.11,2.06-.32,.64-.21,1.19-.52,1.66-.93,.47-.4,.84-.9,1.12-1.48,.28-.58,.41-1.24,.41-1.98s-.14-1.4-.41-2.05c-.28-.64-.65-1.2-1.12-1.67-.47-.47-1.02-.84-1.66-1.12-.64-.28-1.32-.41-2.06-.41h-22.39Z" style="fill:url(#linear-gradient-16);"/><path d="M105.07,137.07c-1.27,0-2.5-.17-3.68-.5-1.18-.33-2.28-.8-3.3-1.4-1.02-.6-1.95-1.32-2.79-2.16-.84-.84-1.56-1.77-2.16-2.79-.6-1.02-1.06-2.12-1.4-3.3-.33-1.18-.5-2.4-.5-3.68s.17-2.5,.5-3.68c.33-1.18,.8-2.28,1.4-3.3,.6-1.02,1.32-1.95,2.16-2.79,.84-.84,1.77-1.56,2.79-2.16,1.02-.6,2.12-1.06,3.3-1.4,1.18-.33,2.4-.5,3.68-.5h24.87v2.49h-21.28c-1.47,0-2.86,.26-4.15,.77-1.29,.52-2.44,1.23-3.44,2.14-1,.91-1.83,1.98-2.47,3.21-.65,1.23-1.05,2.55-1.22,3.97h32.56v2.49h-32.56c.17,1.42,.57,2.75,1.22,3.98,.64,1.23,1.47,2.3,2.47,3.21,1,.9,2.15,1.61,3.44,2.13,1.29,.52,2.67,.77,4.15,.77h21.28v2.49h-24.88Z" style="fill:url(#linear-gradient-17);"/><path d="M133.15,109.43h5.53v15.06c.17,1.42,.6,2.74,1.31,3.97,.71,1.23,1.6,2.29,2.68,3.21,1.08,.91,2.29,1.63,3.65,2.14,1.35,.52,2.77,.77,4.24,.77h7.46v2.49h-11.06c-1.27,0-2.5-.17-3.68-.5-1.18-.33-2.28-.8-3.3-1.4-1.02-.6-1.95-1.32-2.79-2.16-.84-.84-1.56-1.77-2.16-2.79-.6-1.02-1.06-2.12-1.4-3.3-.33-1.18-.5-2.4-.5-3.68v-13.82h0Z" style="fill:url(#linear-gradient-18);"/><path d="M199.15,123.25c0,1.27-.17,2.5-.5,3.68-.33,1.18-.8,2.28-1.4,3.3-.6,1.02-1.32,1.95-2.16,2.79-.84,.84-1.77,1.56-2.79,2.16-1.02,.6-2.12,1.06-3.3,1.4-1.18,.33-2.4,.5-3.68,.5h-24.87v-13.82c0-1.27,.17-2.5,.5-3.68,.33-1.18,.8-2.28,1.4-3.3,.6-1.02,1.32-1.95,2.16-2.79,.84-.84,1.77-1.56,2.79-2.16,1.02-.6,2.12-1.06,3.3-1.4,1.18-.33,2.4-.5,3.68-.5h24.87v2.49h-21.28c-1.57,0-3.04,.3-4.42,.88-1.38,.59-2.58,1.4-3.61,2.42s-1.83,2.23-2.42,3.61-.88,2.86-.88,4.42v11.33h15.2c1.46,0,2.84-.26,4.15-.77,1.31-.52,2.47-1.23,3.48-2.14,1.01-.91,1.84-1.98,2.49-3.21,.64-1.22,1.05-2.55,1.22-3.97h-18.79v-2.49h24.87v1.24h0Z" style="fill:url(#linear-gradient-19);"/><path d="M203.38,109.43h5.53v27.64h-5.53v-27.64Z" style="fill:url(#linear-gradient-20);"/><path d="M227.59,137.07c-1.27,0-2.5-.17-3.68-.5-1.18-.33-2.28-.8-3.3-1.4-1.02-.6-1.95-1.32-2.79-2.16-.84-.84-1.56-1.77-2.16-2.79-.6-1.02-1.06-2.12-1.4-3.3s-.5-2.4-.5-3.68,.17-2.5,.5-3.68c.33-1.18,.8-2.28,1.4-3.3,.6-1.02,1.32-1.95,2.16-2.79,.84-.84,1.77-1.56,2.79-2.16,1.02-.6,2.12-1.06,3.3-1.4,1.18-.33,2.4-.5,3.68-.5h24.87v2.49h-21.28c-1.57,0-3.04,.3-4.42,.88-1.38,.59-2.58,1.4-3.61,2.42-1.02,1.02-1.83,2.23-2.42,3.61-.59,1.38-.89,2.86-.89,4.42s.3,3.04,.89,4.42c.59,1.38,1.4,2.59,2.42,3.61,1.02,1.02,2.23,1.83,3.61,2.42s2.86,.88,4.42,.88h21.28v2.49h-24.87Z" style="fill:url(#linear-gradient-21);"/><path d="M270.43,109.43h6.08l16.58,27.64h-6.08l-5.8-9.67h-17.88l-5.61,9.67h-3.32l16.03-27.64Zm-5.67,15.48h14.95l-7.6-12.66-7.35,12.66Z" style="fill:url(#linear-gradient-22);"/></g></g><g><rect x="313.42" y="364.33" width="59.91" height="8.42" style="fill:#ed1c24;"/><rect x="253.51" y="364.33" width="59.91" height="8.42" style="fill:#fff200;"/><rect x="193.6" y="364.33" width="59.91" height="8.42"/></g></svg>