<?xml version="1.0" encoding="UTF-8"?><svg preserveAspectRatio="none" xmlns="http://www.w3.org/2000/svg" xmlns:xlink="http://www.w3.org/1999/xlink" viewBox="0 0 488.44 80.17"><defs><filter id="outer-glow-1" filterUnits="userSpaceOnUse"><feOffset dx="0" dy="0"/><feGaussianBlur result="blur" stdDeviation="2"/><feFlood flood-color="#71bf44" flood-opacity=".7"/><feComposite in2="blur" operator="in"/><feComposite in="SourceGraphic"/></filter></defs><g id="Layer_2"><polygon points="529.01 79.67 -40.57 79.67 101.59 12.78 133.29 8.85 164.98 3.06 196.68 10.89 228.37 8.34 260.07 12.78 323.62 12.78 355.15 8.34 386.85 12.78 529.01 79.67" style="fill:#fff; stroke:#fff; stroke-miterlimit:10;"/></g><g id="Layer_1"><g style="filter:url(#outer-glow-1); opacity:.5;"><polygon points="101.59 12.78 133.29 8.85 164.98 3.06 196.68 10.89 228.37 8.34 260.07 12.78 323.46 12.78 355.15 8.34 386.85 12.78 529.01 79.67 -40.57 79.67 101.59 12.78" style="fill:none; stroke:#059548; stroke-miterlimit:10;"/><polyline points="0 60.58 325.63 60.58 379.54 55.15 434.17 60.58 488.44 60.58" style="fill:none; stroke:#059548; stroke-miterlimit:10;"/><polyline points="30.45 46.25 78 46.25 122.69 40.51 171.71 43.38 220.47 46.25 315.46 46.25 366.01 40.51 411.45 43.38 457.99 46.25" style="fill:none; stroke:#059548; stroke-miterlimit:10;"/><line x1="54.15" y1="35.1" x2="434.29" y2="35.1" style="fill:none; stroke:#059548; stroke-miterlimit:10;"/><line x1="73.12" y1="26.17" x2="415.32" y2="26.17" style="fill:none; stroke:#059548; stroke-miterlimit:10;"/><polyline points="88.65 18.87 123.22 18.87 157.92 14.13 192.36 18.87 226.93 18.87 261.51 18.87 296.08 18.87 399.79 18.87" style="fill:none; stroke:#059548; stroke-miterlimit:10;"/><polyline points="355.15 8.34 365.22 18.87 392.05 35.1 411.45 43.38 434.17 60.58 465.72 79.67" style="fill:none; stroke:#059548; stroke-miterlimit:10;"/><polyline points="323.46 12.78 349.81 35.1 366.01 40.51 379.54 55.15 402.44 79.67" style="fill:none; stroke:#059548; stroke-miterlimit:10;"/><line x1="291.76" y1="12.78" x2="339.15" y2="79.67" style="fill:none; stroke:#059548; stroke-miterlimit:10;"/><line x1="260.07" y1="12.78" x2="275.86" y2="79.67" style="fill:none; stroke:#059548; stroke-miterlimit:10;"/><polyline points="228.37 8.34 226.93 18.87 225.21 26.17 212.58 79.67" style="fill:none; stroke:#059548; stroke-miterlimit:10;"/><polyline points="196.68 10.89 192.36 18.87 187.19 26.17 180.86 35.1 171.71 43.38 162.81 60.58 149.29 79.67" style="fill:none; stroke:#059548; stroke-miterlimit:10;"/><polyline points="164.98 3.06 157.92 14.13 149.17 26.17 138.63 35.1 122.69 40.51 108.54 60.58 86 79.67" style="fill:none; stroke:#059548; stroke-miterlimit:10;"/><polyline points="133.29 8.85 123.22 18.87 111.15 26.17 22.72 79.67" style="fill:none; stroke:#059548; stroke-miterlimit:10;"/></g></g></svg>